<svg xmlns="http://www.w3.org/2000/svg" xmlns:xlink="http://www.w3.org/1999/xlink" width="500" zoomAndPan="magnify" viewBox="0 0 375 374.999991" height="500" preserveAspectRatio="xMidYMid meet" version="1.0"><defs><clipPath id="18de42a81d"><path d="M 120 119 L 262 119 L 262 262.5 L 120 262.5 Z M 120 119 " clip-rule="nonzero"/></clipPath><clipPath id="7288f19aca"><path d="M 120 119 L 262 119 L 262 262.5 L 120 262.5 Z M 120 119 " clip-rule="nonzero"/></clipPath></defs><rect x="-37.5" width="450" fill="#ffffff" y="-37.499999" height="449.999989" fill-opacity="1"/><rect x="-37.5" width="450" fill="#ffffff" y="-37.499999" height="449.999989" fill-opacity="1"/><g clip-path="url(#18de42a81d)"><path fill="#100f0d" d="M 253.691406 206.578125 C 251.394531 208.253906 248.527344 208.441406 246.042969 207.066406 L 241.140625 204.378906 C 236.707031 201.929688 231.097656 202.730469 227.519531 206.308594 C 223.996094 209.832031 223.144531 215.179688 225.414062 219.621094 L 235.140625 238.683594 C 236.746094 241.808594 236.882812 245.46875 235.539062 248.722656 C 234.25 251.847656 231.703125 254.238281 228.539062 255.277344 C 207.585938 262.121094 180.285156 254.488281 158.46875 235.863281 C 171.699219 225.332031 202.894531 199.9375 216.367188 184.148438 L 237.050781 159.914062 C 246.933594 171.929688 253.820312 185.847656 256.484375 199.476562 C 257.019531 202.246094 255.980469 204.90625 253.691406 206.578125 Z M 124.839844 257.652344 L 124.839844 257.558594 C 124.839844 246.527344 131.285156 236.746094 141.289062 232.460938 L 147.984375 239.15625 C 144.578125 249.417969 135.449219 256.695312 124.839844 257.652344 Z M 137.421875 137.421875 C 156.816406 118.035156 193.6875 121.691406 222.617188 145.421875 L 189.480469 173.804688 C 178.539062 183.175781 155.167969 209.785156 144.773438 221.78125 C 121.382812 192.726562 118.15625 156.6875 137.421875 137.421875 Z M 182.414062 209.914062 L 171.429688 198.925781 C 172.644531 197.601562 173.847656 196.292969 175.046875 195.015625 L 186.449219 206.417969 C 185.113281 207.597656 183.761719 208.753906 182.414062 209.914062 Z M 151.847656 235.039062 L 145.3125 228.429688 C 149.300781 223.792969 158.5625 213.113281 168.230469 202.441406 L 178.789062 213.011719 C 167.21875 222.828125 156.457031 231.40625 151.847656 235.039062 Z M 250.835938 127.492188 C 251.996094 126.5 253.738281 126.558594 254.824219 127.632812 C 255.9375 128.761719 255.964844 130.542969 254.804688 131.785156 L 212.761719 181.070312 C 207.402344 187.347656 198.984375 195.332031 190.019531 203.277344 L 178.289062 191.539062 C 183.851562 185.640625 188.960938 180.503906 192.566406 177.410156 Z M 240.175781 156.242188 L 258.335938 134.957031 C 261.191406 131.914062 261.117188 127.222656 258.171875 124.285156 C 255.34375 121.449219 250.753906 121.289062 247.742188 123.90625 L 226.257812 142.300781 C 194.921875 116.109375 155.695312 112.4375 134.066406 134.066406 C 112.917969 155.203125 116.210938 194.375 141.613281 225.441406 C 140.519531 226.714844 139.832031 227.519531 139.648438 227.734375 C 139.554688 227.84375 139.507812 227.972656 139.445312 228.105469 C 127.667969 233.121094 120.09375 244.605469 120.09375 257.558594 L 120.09375 260.125 C 120.09375 261.433594 121.160156 262.5 122.46875 262.5 C 136.144531 262.5 148.242188 253.554688 152.507812 240.5625 C 152.804688 240.332031 153.546875 239.75 154.667969 238.867188 C 172.160156 254.074219 193.246094 262.480469 212.304688 262.480469 C 218.480469 262.480469 224.449219 261.601562 230.003906 259.785156 C 234.492188 258.320312 238.109375 254.953125 239.933594 250.53125 C 241.808594 245.996094 241.601562 240.890625 239.367188 236.523438 L 229.644531 217.460938 C 228.316406 214.863281 228.808594 211.730469 230.875 209.664062 C 232.972656 207.566406 236.253906 207.105469 238.847656 208.53125 L 243.753906 211.230469 C 247.832031 213.472656 252.71875 213.167969 256.484375 210.40625 C 260.246094 207.671875 262.027344 203.128906 261.136719 198.566406 C 258.234375 183.703125 250.976562 169.140625 240.175781 156.242188 " fill-opacity="1" fill-rule="nonzero"/></g><path fill="#100f0d" d="M 196.042969 139.082031 C 199.976562 139.082031 203.164062 142.273438 203.164062 146.203125 C 203.164062 150.132812 199.976562 153.324219 196.042969 153.324219 C 192.113281 153.324219 188.925781 150.132812 188.925781 146.203125 C 188.925781 142.273438 192.113281 139.082031 196.042969 139.082031 Z M 196.042969 158.070312 C 202.589844 158.070312 207.910156 152.746094 207.910156 146.203125 C 207.910156 139.65625 202.589844 134.335938 196.042969 134.335938 C 189.5 134.335938 184.175781 139.65625 184.175781 146.203125 C 184.175781 152.746094 189.5 158.070312 196.042969 158.070312 " fill-opacity="1" fill-rule="nonzero"/><path fill="#100f0d" d="M 165.191406 148.574219 C 161.257812 148.574219 158.070312 145.386719 158.070312 141.457031 C 158.070312 137.523438 161.257812 134.335938 165.191406 134.335938 C 169.121094 134.335938 172.308594 137.523438 172.308594 141.457031 C 172.308594 145.386719 169.121094 148.574219 165.191406 148.574219 Z M 165.191406 129.589844 C 158.644531 129.589844 153.324219 134.910156 153.324219 141.457031 C 153.324219 148 158.644531 153.324219 165.191406 153.324219 C 171.734375 153.324219 177.058594 148 177.058594 141.457031 C 177.058594 134.910156 171.734375 129.589844 165.191406 129.589844 " fill-opacity="1" fill-rule="nonzero"/><path fill="#100f0d" d="M 136.707031 162.816406 C 136.707031 158.886719 139.898438 155.695312 143.828125 155.695312 C 147.761719 155.695312 150.949219 158.886719 150.949219 162.816406 C 150.949219 166.746094 147.761719 169.9375 143.828125 169.9375 C 139.898438 169.9375 136.707031 166.746094 136.707031 162.816406 Z M 155.695312 162.816406 C 155.695312 156.269531 150.375 150.949219 143.828125 150.949219 C 137.285156 150.949219 131.960938 156.269531 131.960938 162.816406 C 131.960938 169.363281 137.285156 174.683594 143.828125 174.683594 C 150.375 174.683594 155.695312 169.363281 155.695312 162.816406 " fill-opacity="1" fill-rule="nonzero"/><path fill="#100f0d" d="M 148.574219 198.417969 C 144.644531 198.417969 141.457031 195.226562 141.457031 191.296875 C 141.457031 187.367188 144.644531 184.175781 148.574219 184.175781 C 152.507812 184.175781 155.695312 187.367188 155.695312 191.296875 C 155.695312 195.226562 152.507812 198.417969 148.574219 198.417969 Z M 148.574219 179.429688 C 142.03125 179.429688 136.707031 184.753906 136.707031 191.296875 C 136.707031 197.84375 142.03125 203.164062 148.574219 203.164062 C 155.121094 203.164062 160.441406 197.84375 160.441406 191.296875 C 160.441406 184.753906 155.121094 179.429688 148.574219 179.429688 " fill-opacity="1" fill-rule="nonzero"/><path fill="#100f0d" d="M 188.925781 241.140625 C 184.992188 241.140625 181.804688 237.949219 181.804688 234.019531 C 181.804688 230.089844 184.992188 226.898438 188.925781 226.898438 C 192.855469 226.898438 196.042969 230.089844 196.042969 234.019531 C 196.042969 237.949219 192.855469 241.140625 188.925781 241.140625 Z M 188.925781 222.152344 C 182.378906 222.152344 177.058594 227.472656 177.058594 234.019531 C 177.058594 240.5625 182.378906 245.886719 188.925781 245.886719 C 195.46875 245.886719 200.792969 240.5625 200.792969 234.019531 C 200.792969 227.472656 195.46875 222.152344 188.925781 222.152344 " fill-opacity="1" fill-rule="nonzero"/><path fill="#100f0d" d="M 232.832031 193.671875 C 229.558594 193.671875 226.898438 191.011719 226.898438 187.738281 C 226.898438 184.464844 229.558594 181.804688 232.832031 181.804688 C 236.105469 181.804688 238.765625 184.464844 238.765625 187.738281 C 238.765625 191.011719 236.105469 193.671875 232.832031 193.671875 Z M 232.832031 177.058594 C 226.945312 177.058594 222.152344 181.851562 222.152344 187.738281 C 222.152344 193.625 226.945312 198.417969 232.832031 198.417969 C 238.71875 198.417969 243.511719 193.625 243.511719 187.738281 C 243.511719 181.851562 238.71875 177.058594 232.832031 177.058594 " fill-opacity="1" fill-rule="nonzero"/><g clip-path="url(#7288f19aca)"><path fill="#100f0d" d="M 253.691406 206.578125 C 251.394531 208.253906 248.527344 208.441406 246.042969 207.066406 L 241.140625 204.378906 C 236.707031 201.929688 231.097656 202.730469 227.519531 206.308594 C 223.996094 209.832031 223.144531 215.179688 225.414062 219.621094 L 235.140625 238.683594 C 236.746094 241.808594 236.882812 245.46875 235.539062 248.722656 C 234.25 251.847656 231.703125 254.238281 228.539062 255.277344 C 207.585938 262.121094 180.285156 254.488281 158.46875 235.863281 C 171.699219 225.332031 202.894531 199.9375 216.367188 184.148438 L 237.050781 159.914062 C 246.933594 171.929688 253.820312 185.847656 256.484375 199.476562 C 257.019531 202.246094 255.980469 204.90625 253.691406 206.578125 Z M 124.839844 257.652344 L 124.839844 257.558594 C 124.839844 246.527344 131.285156 236.746094 141.289062 232.460938 L 147.984375 239.15625 C 144.578125 249.417969 135.449219 256.695312 124.839844 257.652344 Z M 137.421875 137.421875 C 156.816406 118.035156 193.6875 121.691406 222.617188 145.421875 L 189.480469 173.804688 C 178.539062 183.175781 155.167969 209.785156 144.773438 221.78125 C 121.382812 192.726562 118.15625 156.6875 137.421875 137.421875 Z M 182.414062 209.914062 L 171.429688 198.925781 C 172.644531 197.601562 173.847656 196.292969 175.046875 195.015625 L 186.449219 206.417969 C 185.113281 207.597656 183.761719 208.753906 182.414062 209.914062 Z M 151.847656 235.039062 L 145.3125 228.429688 C 149.300781 223.792969 158.5625 213.113281 168.230469 202.441406 L 178.789062 213.011719 C 167.21875 222.828125 156.457031 231.40625 151.847656 235.039062 Z M 250.835938 127.492188 C 251.996094 126.5 253.738281 126.558594 254.824219 127.632812 C 255.9375 128.761719 255.964844 130.542969 254.804688 131.785156 L 212.761719 181.070312 C 207.402344 187.347656 198.984375 195.332031 190.019531 203.277344 L 178.289062 191.539062 C 183.851562 185.640625 188.960938 180.503906 192.566406 177.410156 Z M 240.175781 156.242188 L 258.335938 134.957031 C 261.191406 131.914062 261.117188 127.222656 258.171875 124.285156 C 255.34375 121.449219 250.753906 121.289062 247.742188 123.90625 L 226.257812 142.300781 C 194.921875 116.109375 155.695312 112.4375 134.066406 134.066406 C 112.917969 155.203125 116.210938 194.375 141.613281 225.441406 C 140.519531 226.714844 139.832031 227.519531 139.648438 227.734375 C 139.554688 227.84375 139.507812 227.972656 139.445312 228.105469 C 127.667969 233.121094 120.09375 244.605469 120.09375 257.558594 L 120.09375 260.125 C 120.09375 261.433594 121.160156 262.5 122.46875 262.5 C 136.144531 262.5 148.242188 253.554688 152.507812 240.5625 C 152.804688 240.332031 153.546875 239.75 154.667969 238.867188 C 172.160156 254.074219 193.246094 262.480469 212.304688 262.480469 C 218.480469 262.480469 224.449219 261.601562 230.003906 259.785156 C 234.492188 258.320312 238.109375 254.953125 239.933594 250.53125 C 241.808594 245.996094 241.601562 240.890625 239.367188 236.523438 L 229.644531 217.460938 C 228.316406 214.863281 228.808594 211.730469 230.875 209.664062 C 232.972656 207.566406 236.253906 207.105469 238.847656 208.53125 L 243.753906 211.230469 C 247.832031 213.472656 252.71875 213.167969 256.484375 210.40625 C 260.246094 207.671875 262.027344 203.128906 261.136719 198.566406 C 258.234375 183.703125 250.976562 169.140625 240.175781 156.242188 " fill-opacity="1" fill-rule="nonzero"/></g><path fill="#100f0d" d="M 196.042969 139.082031 C 199.976562 139.082031 203.164062 142.273438 203.164062 146.203125 C 203.164062 150.132812 199.976562 153.324219 196.042969 153.324219 C 192.113281 153.324219 188.925781 150.132812 188.925781 146.203125 C 188.925781 142.273438 192.113281 139.082031 196.042969 139.082031 Z M 196.042969 158.070312 C 202.589844 158.070312 207.910156 152.746094 207.910156 146.203125 C 207.910156 139.65625 202.589844 134.335938 196.042969 134.335938 C 189.5 134.335938 184.175781 139.65625 184.175781 146.203125 C 184.175781 152.746094 189.5 158.070312 196.042969 158.070312 " fill-opacity="1" fill-rule="nonzero"/><path fill="#100f0d" d="M 165.191406 148.574219 C 161.257812 148.574219 158.070312 145.386719 158.070312 141.457031 C 158.070312 137.523438 161.257812 134.335938 165.191406 134.335938 C 169.121094 134.335938 172.308594 137.523438 172.308594 141.457031 C 172.308594 145.386719 169.121094 148.574219 165.191406 148.574219 Z M 165.191406 129.589844 C 158.644531 129.589844 153.324219 134.910156 153.324219 141.457031 C 153.324219 148 158.644531 153.324219 165.191406 153.324219 C 171.734375 153.324219 177.058594 148 177.058594 141.457031 C 177.058594 134.910156 171.734375 129.589844 165.191406 129.589844 " fill-opacity="1" fill-rule="nonzero"/><path fill="#100f0d" d="M 136.707031 162.816406 C 136.707031 158.886719 139.898438 155.695312 143.828125 155.695312 C 147.761719 155.695312 150.949219 158.886719 150.949219 162.816406 C 150.949219 166.746094 147.761719 169.9375 143.828125 169.9375 C 139.898438 169.9375 136.707031 166.746094 136.707031 162.816406 Z M 155.695312 162.816406 C 155.695312 156.269531 150.375 150.949219 143.828125 150.949219 C 137.285156 150.949219 131.960938 156.269531 131.960938 162.816406 C 131.960938 169.363281 137.285156 174.683594 143.828125 174.683594 C 150.375 174.683594 155.695312 169.363281 155.695312 162.816406 " fill-opacity="1" fill-rule="nonzero"/><path fill="#100f0d" d="M 148.574219 198.417969 C 144.644531 198.417969 141.457031 195.226562 141.457031 191.296875 C 141.457031 187.367188 144.644531 184.175781 148.574219 184.175781 C 152.507812 184.175781 155.695312 187.367188 155.695312 191.296875 C 155.695312 195.226562 152.507812 198.417969 148.574219 198.417969 Z M 148.574219 179.429688 C 142.03125 179.429688 136.707031 184.753906 136.707031 191.296875 C 136.707031 197.84375 142.03125 203.164062 148.574219 203.164062 C 155.121094 203.164062 160.441406 197.84375 160.441406 191.296875 C 160.441406 184.753906 155.121094 179.429688 148.574219 179.429688 " fill-opacity="1" fill-rule="nonzero"/><path fill="#100f0d" d="M 188.925781 241.140625 C 184.992188 241.140625 181.804688 237.949219 181.804688 234.019531 C 181.804688 230.089844 184.992188 226.898438 188.925781 226.898438 C 192.855469 226.898438 196.042969 230.089844 196.042969 234.019531 C 196.042969 237.949219 192.855469 241.140625 188.925781 241.140625 Z M 188.925781 222.152344 C 182.378906 222.152344 177.058594 227.472656 177.058594 234.019531 C 177.058594 240.5625 182.378906 245.886719 188.925781 245.886719 C 195.46875 245.886719 200.792969 240.5625 200.792969 234.019531 C 200.792969 227.472656 195.46875 222.152344 188.925781 222.152344 " fill-opacity="1" fill-rule="nonzero"/><path fill="#100f0d" d="M 232.832031 193.671875 C 229.558594 193.671875 226.898438 191.011719 226.898438 187.738281 C 226.898438 184.464844 229.558594 181.804688 232.832031 181.804688 C 236.105469 181.804688 238.765625 184.464844 238.765625 187.738281 C 238.765625 191.011719 236.105469 193.671875 232.832031 193.671875 Z M 232.832031 177.058594 C 226.945312 177.058594 222.152344 181.851562 222.152344 187.738281 C 222.152344 193.625 226.945312 198.417969 232.832031 198.417969 C 238.71875 198.417969 243.511719 193.625 243.511719 187.738281 C 243.511719 181.851562 238.71875 177.058594 232.832031 177.058594 " fill-opacity="1" fill-rule="nonzero"/></svg>