<svg xmlns="http://www.w3.org/2000/svg" xmlns:xlink="http://www.w3.org/1999/xlink" width="500" zoomAndPan="magnify" viewBox="0 0 375 374.999991" height="500" preserveAspectRatio="xMidYMid meet" version="1.0"><defs><clipPath id="7aba5fd1cc"><path d="M 112.5 133.910156 L 262.5 133.910156 L 262.5 241.160156 L 112.5 241.160156 Z M 112.5 133.910156 " clip-rule="nonzero"/></clipPath></defs><rect x="-37.5" width="450" fill="#ffffff" y="-37.499999" height="449.999989" fill-opacity="1"/><rect x="-37.5" width="450" fill="#ffffff" y="-37.499999" height="449.999989" fill-opacity="1"/><g clip-path="url(#7aba5fd1cc)"><path fill="#000000" d="M 253.890625 133.910156 C 252.9375 133.910156 251.988281 133.910156 251.035156 133.910156 L 121.941406 133.910156 C 117.773438 133.910156 113.84375 136.292969 112.890625 140.582031 C 112.652344 142.371094 112.535156 144.15625 112.652344 145.945312 L 112.652344 229.242188 C 112.535156 231.269531 112.652344 233.292969 113.128906 235.199219 C 114.4375 239.132812 118.132812 241.160156 122.0625 241.160156 L 253.890625 241.160156 C 254.128906 241.160156 254.367188 241.039062 254.605469 240.921875 C 259.371094 240.445312 262.464844 236.511719 262.464844 231.625 L 262.464844 143.203125 C 262.464844 138.199219 259.011719 134.027344 253.890625 133.910156 Z M 115.628906 142.488281 C 115.75 138.792969 118.605469 136.769531 122.0625 136.769531 L 241.507812 136.769531 C 245.554688 136.769531 249.722656 136.648438 253.773438 136.769531 C 257.34375 136.886719 259.609375 139.628906 259.609375 143.085938 L 259.609375 153.453125 L 132.183594 153.453125 C 126.585938 153.453125 121.109375 153.214844 115.628906 153.453125 C 115.511719 149.878906 115.511719 146.183594 115.628906 142.488281 Z M 259.488281 232.339844 C 259.488281 235.4375 256.988281 237.941406 253.773438 238.0625 C 253.652344 238.0625 253.535156 238.0625 253.535156 238.0625 L 122.65625 238.0625 C 120.15625 238.0625 117.65625 237.703125 116.34375 235.199219 C 115.390625 233.414062 115.628906 231.386719 115.628906 229.363281 L 115.628906 157.742188 C 115.628906 157.386719 115.628906 156.910156 115.628906 156.550781 L 242.9375 156.550781 C 248.53125 156.550781 254.011719 156.789062 259.488281 156.550781 L 259.488281 231.148438 C 259.488281 231.507812 259.488281 231.984375 259.488281 232.339844 Z M 259.488281 232.339844 " fill-opacity="1" fill-rule="nonzero"/></g><path fill="#000000" d="M 125.632812 146.539062 C 125.632812 146.421875 125.515625 146.421875 125.632812 146.539062 Z M 125.632812 146.539062 " fill-opacity="1" fill-rule="nonzero"/><path fill="#000000" d="M 131.46875 149.28125 C 132.300781 148.328125 132.660156 147.253906 132.660156 145.945312 C 132.660156 145.707031 132.660156 145.585938 132.660156 145.347656 C 132.421875 143.441406 131.113281 141.894531 129.324219 141.179688 C 127.417969 140.464844 125.15625 141.058594 123.847656 142.609375 C 122.0625 144.753906 122.300781 147.851562 124.324219 149.757812 C 126.46875 151.546875 129.5625 151.308594 131.46875 149.28125 Z M 129.683594 145.585938 C 129.683594 145.585938 129.683594 145.707031 129.683594 145.585938 C 129.683594 145.707031 129.683594 145.707031 129.683594 145.707031 C 129.683594 145.707031 129.683594 145.707031 129.683594 145.585938 Z M 125.515625 145.585938 C 125.515625 145.46875 125.515625 145.46875 125.515625 145.347656 C 125.515625 145.230469 125.632812 145.109375 125.632812 144.871094 L 125.753906 144.632812 L 125.871094 144.394531 C 125.992188 144.277344 126.109375 144.15625 126.230469 144.039062 L 126.347656 144.039062 C 126.230469 144.15625 126.347656 144.039062 126.46875 144.039062 C 126.585938 143.917969 126.824219 143.917969 126.945312 143.800781 C 126.945312 143.800781 126.585938 143.917969 126.824219 143.800781 L 127.0625 143.679688 L 127.300781 143.679688 C 127.300781 143.679688 127.300781 143.679688 127.417969 143.679688 C 127.417969 143.679688 127.539062 143.679688 127.539062 143.679688 L 127.894531 143.679688 L 128.492188 143.800781 C 128.730469 143.917969 128.730469 143.917969 128.730469 143.917969 L 128.847656 144.039062 L 128.96875 144.15625 C 128.847656 144.039062 128.730469 144.039062 128.847656 144.15625 L 129.207031 144.515625 C 129.207031 144.632812 129.324219 144.632812 129.324219 144.753906 L 129.445312 144.992188 C 129.445312 145.109375 129.445312 145.230469 129.5625 145.230469 C 129.5625 145.347656 129.445312 145.46875 129.445312 145.585938 C 129.445312 145.707031 129.445312 145.707031 129.445312 145.824219 C 129.445312 145.945312 129.324219 146.183594 129.324219 146.300781 C 129.324219 146.300781 129.324219 146.421875 129.324219 146.421875 C 129.324219 146.421875 129.324219 146.421875 129.324219 146.539062 C 129.207031 146.660156 129.085938 146.898438 129.085938 147.015625 C 129.085938 147.015625 128.96875 147.136719 128.96875 147.136719 C 128.96875 147.136719 128.847656 147.253906 128.847656 147.253906 L 128.730469 147.253906 C 128.609375 147.375 128.609375 147.375 128.730469 147.253906 C 128.609375 147.375 128.492188 147.375 128.492188 147.492188 L 128.371094 147.613281 L 127.777344 147.851562 C 127.65625 147.851562 127.65625 147.851562 127.539062 147.851562 L 127.0625 147.851562 C 126.945312 147.851562 126.824219 147.851562 126.824219 147.730469 L 126.585938 147.613281 C 126.347656 147.492188 126.707031 147.613281 126.707031 147.613281 C 126.707031 147.613281 126.347656 147.375 126.347656 147.375 L 126.109375 147.253906 C 126.109375 147.253906 125.753906 146.898438 125.753906 146.898438 L 125.632812 146.777344 L 125.632812 146.539062 C 125.632812 146.539062 125.632812 146.660156 125.632812 146.660156 C 125.632812 146.660156 125.515625 146.300781 125.515625 146.183594 Z M 125.515625 145.585938 " fill-opacity="1" fill-rule="nonzero"/><path fill="#000000" d="M 143.378906 149.042969 C 144.09375 148.210938 144.449219 147.136719 144.570312 146.0625 C 144.570312 145.945312 144.570312 145.945312 144.570312 145.824219 C 144.570312 145.824219 144.570312 145.707031 144.570312 145.707031 C 144.570312 143.5625 143.257812 141.65625 141.234375 140.941406 C 139.328125 140.226562 137.066406 140.820312 135.757812 142.371094 C 133.96875 144.515625 134.207031 147.613281 136.230469 149.519531 C 138.375 151.425781 141.472656 151.1875 143.378906 149.042969 Z M 137.542969 145.585938 C 137.542969 145.46875 137.542969 145.46875 137.542969 145.347656 C 137.542969 145.230469 137.660156 145.109375 137.660156 144.871094 L 137.78125 144.632812 L 137.898438 144.394531 C 138.019531 144.277344 138.136719 144.15625 138.257812 144.039062 L 138.375 144.039062 C 138.375 144.039062 138.375 144.039062 138.496094 144.039062 C 138.613281 143.917969 138.851562 143.917969 138.972656 143.800781 C 138.972656 143.800781 138.613281 143.917969 138.851562 143.800781 L 139.089844 143.679688 L 139.328125 143.679688 C 139.328125 143.679688 139.328125 143.679688 139.449219 143.679688 C 139.449219 143.679688 139.566406 143.679688 139.566406 143.679688 L 139.804688 143.679688 L 140.402344 143.800781 C 140.636719 143.917969 140.636719 143.917969 140.636719 143.917969 C 140.636719 143.917969 140.757812 143.917969 140.757812 144.039062 C 140.757812 144.039062 140.757812 144.039062 140.875 144.15625 L 141.234375 144.515625 C 141.234375 144.632812 141.351562 144.632812 141.351562 144.753906 L 141.472656 144.992188 C 141.589844 145.230469 141.589844 145.347656 141.589844 145.46875 C 141.589844 145.46875 141.589844 145.46875 141.589844 145.585938 C 141.589844 145.585938 141.589844 145.585938 141.589844 145.707031 C 141.589844 145.824219 141.589844 145.824219 141.589844 145.945312 C 141.589844 146.0625 141.472656 146.300781 141.472656 146.421875 C 141.472656 146.421875 141.472656 146.539062 141.472656 146.539062 C 141.472656 146.539062 141.472656 146.539062 141.472656 146.660156 L 141.234375 147.136719 C 141.234375 147.136719 141.113281 147.253906 141.113281 147.253906 L 140.996094 147.375 C 140.875 147.492188 140.875 147.492188 140.996094 147.375 C 140.875 147.492188 140.757812 147.492188 140.757812 147.613281 L 140.636719 147.730469 L 139.925781 147.851562 C 139.804688 147.851562 139.804688 147.851562 139.6875 147.851562 L 138.851562 147.851562 L 138.613281 147.730469 C 138.375 147.613281 138.734375 147.730469 138.734375 147.730469 C 138.734375 147.730469 138.375 147.492188 138.375 147.492188 C 138.375 147.492188 138.257812 147.375 138.136719 147.375 C 138.136719 147.375 137.78125 147.015625 137.78125 147.015625 L 137.660156 146.898438 L 137.78125 146.777344 L 137.78125 146.660156 C 137.78125 146.539062 137.660156 146.539062 137.78125 146.660156 C 137.78125 146.539062 137.660156 146.421875 137.660156 146.300781 C 137.660156 146.300781 137.660156 146.183594 137.660156 146.0625 C 137.542969 145.945312 137.542969 145.707031 137.542969 145.585938 Z M 137.542969 145.585938 " fill-opacity="1" fill-rule="nonzero"/><path fill="#000000" d="M 137.542969 145.585938 C 137.660156 145.230469 137.542969 145.46875 137.542969 145.585938 Z M 137.542969 145.585938 " fill-opacity="1" fill-rule="nonzero"/><path fill="#000000" d="M 155.644531 149.28125 C 156.476562 148.328125 156.835938 147.253906 156.835938 145.945312 C 156.835938 145.707031 156.835938 145.585938 156.835938 145.347656 C 156.476562 143.441406 155.285156 141.894531 153.5 141.179688 C 151.59375 140.464844 149.332031 141.058594 148.023438 142.609375 C 146.234375 144.753906 146.472656 147.851562 148.5 149.757812 C 150.523438 151.664062 153.738281 151.308594 155.644531 149.28125 Z M 153.859375 145.585938 C 153.859375 145.585938 153.859375 145.707031 153.859375 145.585938 C 153.859375 145.707031 153.859375 145.707031 153.859375 145.707031 C 153.859375 145.707031 153.859375 145.707031 153.859375 145.585938 Z M 149.6875 145.585938 C 149.6875 145.585938 149.6875 145.46875 149.6875 145.347656 C 149.6875 145.230469 149.808594 144.992188 149.808594 144.871094 L 149.925781 144.632812 L 150.046875 144.394531 C 150.164062 144.277344 150.285156 144.15625 150.402344 144.039062 L 150.523438 144.039062 C 150.402344 144.15625 150.523438 144.039062 150.640625 144.039062 C 150.761719 143.917969 151 143.917969 151.117188 143.800781 C 151.117188 143.800781 150.761719 143.917969 151 143.800781 L 151.238281 143.679688 L 151.476562 143.679688 C 151.476562 143.679688 151.476562 143.679688 151.59375 143.679688 C 151.59375 143.679688 151.714844 143.679688 151.714844 143.679688 L 152.191406 143.679688 L 152.785156 143.800781 C 153.023438 143.917969 153.023438 143.917969 153.023438 143.917969 L 153.144531 144.039062 C 153.144531 144.039062 153.144531 144.039062 153.261719 144.15625 L 153.621094 144.515625 C 153.621094 144.632812 153.738281 144.632812 153.738281 144.753906 C 153.738281 144.871094 153.859375 144.871094 153.859375 144.992188 C 153.859375 145.109375 153.976562 145.230469 153.976562 145.347656 C 153.976562 145.46875 153.859375 145.585938 153.859375 145.707031 C 153.859375 145.824219 153.859375 145.824219 153.859375 145.945312 C 153.859375 146.0625 153.738281 146.300781 153.738281 146.421875 C 153.738281 146.421875 153.738281 146.421875 153.738281 146.539062 C 153.621094 146.660156 153.5 146.898438 153.5 147.015625 C 153.5 147.015625 153.382812 147.136719 153.382812 147.136719 C 153.382812 147.136719 153.261719 147.253906 153.261719 147.253906 C 153.144531 147.375 153.144531 147.375 153.261719 147.253906 C 153.144531 147.375 153.023438 147.375 153.023438 147.492188 L 152.90625 147.613281 L 151.953125 147.851562 C 151.832031 147.851562 151.832031 147.851562 151.714844 147.851562 L 151.238281 147.851562 L 151 147.730469 L 150.761719 147.613281 C 150.523438 147.613281 150.878906 147.613281 150.878906 147.613281 C 150.878906 147.613281 150.523438 147.375 150.523438 147.375 L 150.285156 147.253906 C 150.285156 147.253906 150.046875 147.015625 149.925781 146.898438 L 149.808594 146.660156 L 149.925781 146.539062 C 149.925781 146.421875 149.808594 146.183594 149.808594 146.0625 L 149.808594 145.824219 C 149.6875 145.824219 149.6875 145.707031 149.6875 145.585938 Z M 149.6875 145.585938 " fill-opacity="1" fill-rule="nonzero"/><path fill="#000000" d="M 151.953125 147.851562 C 151.953125 147.730469 151.714844 147.851562 151.953125 147.851562 Z M 151.953125 147.851562 " fill-opacity="1" fill-rule="nonzero"/><path fill="#000000" d="M 149.6875 145.585938 C 149.808594 145.230469 149.6875 145.46875 149.6875 145.585938 Z M 149.6875 145.585938 " fill-opacity="1" fill-rule="nonzero"/><path fill="#000000" d="M 205.066406 181.933594 C 203.875 180.503906 201.730469 182.648438 202.921875 184.078125 L 214.472656 197.304688 L 202.921875 210.535156 C 201.613281 211.964844 203.753906 214.109375 205.066406 212.679688 L 217.570312 198.378906 C 218.164062 197.78125 218.164062 196.828125 217.570312 196.234375 Z M 205.066406 181.933594 " fill-opacity="1" fill-rule="nonzero"/><path fill="#000000" d="M 170.054688 181.933594 L 157.667969 196.234375 C 157.074219 196.828125 157.074219 197.78125 157.667969 198.378906 L 170.054688 212.679688 C 171.363281 214.109375 173.386719 211.964844 172.195312 210.535156 L 160.644531 197.304688 L 172.195312 184.078125 C 173.507812 182.648438 171.363281 180.503906 170.054688 181.933594 Z M 170.054688 181.933594 " fill-opacity="1" fill-rule="nonzero"/><path fill="#000000" d="M 193.394531 182.171875 L 181.007812 207.195312 L 179.222656 210.773438 C 178.390625 212.441406 180.890625 213.988281 181.84375 212.320312 L 194.347656 187.296875 L 196.132812 183.722656 C 196.730469 182.050781 194.226562 180.503906 193.394531 182.171875 Z M 193.394531 182.171875 " fill-opacity="1" fill-rule="nonzero"/></svg>