<svg xmlns="http://www.w3.org/2000/svg" xmlns:xlink="http://www.w3.org/1999/xlink" width="500" zoomAndPan="magnify" viewBox="0 0 375 374.999991" height="500" preserveAspectRatio="xMidYMid meet" version="1.0"><defs><clipPath id="20986b5b15"><path d="M 2.117188 20.332031 L 367.597656 20.332031 L 367.597656 358.84375 L 2.117188 358.84375 Z M 2.117188 20.332031 " clip-rule="nonzero"/></clipPath><clipPath id="fc80bdf849"><path d="M 32.707031 20.332031 L 364.460938 20.332031 L 364.460938 358.84375 L 32.707031 358.84375 Z M 32.707031 20.332031 " clip-rule="nonzero"/></clipPath><clipPath id="ae28718e7c"><path d="M 2.117188 16.253906 L 358 16.253906 L 358 348 L 2.117188 348 Z M 2.117188 16.253906 " clip-rule="nonzero"/></clipPath><clipPath id="6cce7a8a0b"><path d="M 29 21.117188 L 367.597656 21.117188 L 367.597656 358.84375 L 29 358.84375 Z M 29 21.117188 " clip-rule="nonzero"/></clipPath><clipPath id="92a535ca5f"><path d="M 71 107 L 372.609375 107 L 372.609375 348.640625 L 71 348.640625 Z M 71 107 " clip-rule="nonzero"/></clipPath></defs><g clip-path="url(#20986b5b15)"><path fill="#f6836b" d="M 325.167969 285.027344 L 311.570312 264.554688 L 306.324219 264.554688 C 301 271.664062 295.386719 278.519531 289.527344 285.027344 Z M 57.277344 54.730469 C 57.277344 55.042969 57.304688 55.351562 57.347656 55.652344 C 60.722656 53.355469 64.222656 51.175781 67.824219 49.117188 C 66.742188 48.382812 65.441406 47.953125 64.039062 47.953125 C 60.308594 47.953125 57.277344 50.992188 57.277344 54.730469 Z M 367.4375 297.265625 L 351.671875 297.265625 L 358.808594 358.84375 L 347.359375 358.84375 L 340.214844 297.265625 L 299.839844 297.265625 L 292.703125 358.84375 L 281.246094 358.84375 L 288.386719 297.265625 L 277.820312 297.265625 C 247.28125 327.214844 211.535156 347.398438 176.496094 347.398438 C 160.832031 347.398438 145.320312 344.34375 130.375 338.839844 L 132.695312 358.84375 L 121.242188 358.84375 L 118.339844 333.824219 C 102.1875 326.304688 86.878906 315.964844 72.992188 303.605469 L 66.585938 358.84375 L 55.136719 358.84375 L 62.273438 297.265625 L 47.375 297.265625 L 47.375 285.027344 L 54.511719 285.027344 C 22.800781 249.105469 2.117188 202.425781 2.117188 158.152344 C 2.117188 116.859375 20.105469 84.871094 48.25 62.367188 C 47.765625 61.363281 47.371094 60.316406 47.085938 59.234375 L 41.9375 58.097656 L 41.9375 51.359375 L 47.085938 50.226562 C 47.488281 48.710938 48.085938 47.261719 48.871094 45.90625 L 46.03125 41.460938 L 50.789062 36.695312 L 55.234375 39.539062 C 56.582031 38.75 58.027344 38.152344 59.539062 37.753906 L 60.675781 32.59375 L 67.40625 32.59375 L 68.535156 37.753906 C 70.046875 38.152344 71.496094 38.75 72.847656 39.539062 L 77.289062 36.695312 L 82.046875 41.460938 L 81.699219 42.003906 C 84.257812 40.832031 86.859375 39.710938 89.496094 38.644531 L 89.496094 32.59375 L 106.6875 32.59375 C 120.523438 28.40625 135.121094 25.535156 150.085938 23.988281 C 150.070312 23.859375 150.046875 23.734375 150.046875 23.601562 C 150.046875 22.035156 151.320312 20.761719 152.882812 20.761719 C 154.402344 20.761719 155.632812 21.964844 155.707031 23.46875 C 162.582031 22.914062 169.523438 22.632812 176.496094 22.632812 C 266.046875 22.632812 360.234375 36.183594 360.234375 125.867188 C 360.234375 167.261719 340.167969 217.632812 309.753906 259.886719 L 333.523438 259.886719 L 350.21875 285.027344 L 367.4375 285.027344 Z M 43.886719 26.441406 C 45.449219 26.441406 46.71875 25.167969 46.71875 23.601562 C 46.71875 22.035156 45.449219 20.761719 43.886719 20.761719 C 42.320312 20.761719 41.046875 22.035156 41.046875 23.601562 C 41.046875 25.167969 42.320312 26.441406 43.886719 26.441406 Z M 261.539062 23.601562 C 261.539062 22.035156 262.8125 20.761719 264.375 20.761719 C 265.941406 20.761719 267.210938 22.035156 267.210938 23.601562 C 267.210938 25.167969 265.941406 26.441406 264.375 26.441406 C 262.8125 26.441406 261.539062 25.167969 261.539062 23.601562 " fill-opacity="1" fill-rule="nonzero"/></g><g clip-path="url(#fc80bdf849)"><path fill="#5ec9cc" d="M 256.605469 25.65625 C 257.738281 25.65625 258.660156 24.734375 258.660156 23.601562 C 258.660156 22.46875 257.738281 21.546875 256.605469 21.546875 C 255.472656 21.546875 254.554688 22.46875 254.554688 23.601562 C 254.554688 24.734375 255.472656 25.65625 256.605469 25.65625 Z M 303.023438 87.152344 L 312.574219 87.152344 L 312.574219 84.796875 L 303.023438 84.796875 Z M 299.316406 55.355469 L 286.300781 47.566406 L 286.300781 63.144531 Z M 331.84375 76.863281 L 253.773438 76.863281 L 253.773438 36.023438 L 331.84375 36.023438 Z M 316.734375 82.175781 L 310.082031 82.175781 L 310.082031 84.53125 L 316.734375 84.53125 Z M 303.023438 82.175781 L 303.023438 84.53125 L 309.675781 84.53125 L 309.675781 82.175781 Z M 316.734375 79.558594 L 303.023438 79.558594 L 303.023438 81.914062 L 316.734375 81.914062 Z M 97.203125 87.285156 L 89.222656 87.285156 L 89.222656 88.070312 L 97.203125 88.070312 Z M 101.359375 85.449219 L 101.359375 84.664062 L 96.28125 84.664062 L 96.28125 85.449219 Z M 94.300781 84.664062 L 89.222656 84.664062 L 89.222656 85.449219 L 94.300781 85.449219 Z M 101.359375 82.046875 L 89.222656 82.046875 L 89.222656 82.832031 L 101.359375 82.832031 Z M 47.125 87.285156 L 39.144531 87.285156 L 39.144531 88.070312 L 47.125 88.070312 Z M 51.285156 85.449219 L 51.285156 84.664062 L 46.203125 84.664062 L 46.203125 85.449219 Z M 44.226562 84.664062 L 39.144531 84.664062 L 39.144531 85.449219 L 44.226562 85.449219 Z M 51.285156 82.046875 L 39.144531 82.046875 L 39.144531 82.832031 L 51.285156 82.832031 Z M 104.242188 62.894531 L 90.28125 62.894531 L 90.28125 67.789062 L 104.242188 67.789062 Z M 104.242188 41.546875 L 90.28125 41.546875 L 90.28125 46.4375 L 104.242188 46.4375 Z M 36.117188 25.65625 C 37.246094 25.65625 38.164062 24.734375 38.164062 23.601562 C 38.164062 22.46875 37.246094 21.546875 36.117188 21.546875 C 34.980469 21.546875 34.0625 22.46875 34.0625 23.601562 C 34.0625 24.734375 34.980469 25.65625 36.117188 25.65625 Z M 52.359375 54.730469 C 52.359375 61.175781 57.597656 66.425781 64.039062 66.425781 C 70.480469 66.425781 75.71875 61.175781 75.71875 54.730469 C 75.71875 48.28125 70.480469 43.03125 64.039062 43.03125 C 57.597656 43.03125 52.359375 48.28125 52.359375 54.730469 Z M 51.574219 54.730469 C 51.574219 47.84375 57.167969 42.246094 64.039062 42.246094 C 70.914062 42.246094 76.503906 47.84375 76.503906 54.730469 C 76.503906 61.609375 70.914062 67.210938 64.039062 67.210938 C 57.167969 67.210938 51.574219 61.609375 51.574219 54.730469 Z M 200.394531 125.191406 C 199.753906 125.191406 199.167969 125.714844 199.089844 126.355469 C 199.007812 126.996094 199.464844 127.515625 200.101562 127.515625 C 200.742188 127.515625 201.328125 126.996094 201.410156 126.355469 C 201.488281 125.714844 201.035156 125.191406 200.394531 125.191406 Z M 233.6875 125.566406 L 222.007812 125.566406 C 221.578125 125.566406 221.222656 125.921875 221.222656 126.351562 C 221.222656 126.789062 221.578125 127.136719 222.007812 127.136719 L 233.6875 127.136719 C 234.117188 127.136719 234.472656 126.789062 234.472656 126.351562 C 234.472656 125.921875 234.117188 125.566406 233.6875 125.566406 Z M 145.113281 26.441406 C 146.675781 26.441406 147.949219 25.167969 147.949219 23.601562 C 147.949219 22.035156 146.675781 20.761719 145.113281 20.761719 C 143.550781 20.761719 142.28125 22.035156 142.28125 23.601562 C 142.28125 25.167969 143.550781 26.441406 145.113281 26.441406 Z M 166.265625 79.273438 C 166.265625 80.511719 167.273438 81.523438 168.511719 81.523438 L 185.496094 81.523438 C 186.734375 81.523438 187.742188 80.511719 187.742188 79.273438 C 187.742188 78.035156 186.734375 77.027344 185.496094 77.027344 L 168.511719 77.027344 C 167.273438 77.027344 166.265625 78.035156 166.265625 79.273438 Z M 150.734375 67.855469 L 167.71875 67.855469 C 168.957031 67.855469 169.964844 66.847656 169.964844 65.605469 C 169.964844 64.367188 168.957031 63.359375 167.71875 63.359375 L 150.734375 63.359375 C 149.496094 63.359375 148.488281 64.367188 148.488281 65.605469 C 148.488281 66.847656 149.496094 67.855469 150.734375 67.855469 Z M 150.734375 54.1875 L 180.164062 54.1875 C 181.402344 54.1875 182.40625 53.175781 182.40625 51.9375 C 182.40625 50.695312 181.402344 49.691406 180.164062 49.691406 L 150.734375 49.691406 C 149.496094 49.691406 148.488281 50.695312 148.488281 51.9375 C 148.488281 53.175781 149.496094 54.1875 150.734375 54.1875 Z M 185.839844 67.855469 L 191.847656 67.855469 C 193.085938 67.855469 194.089844 66.847656 194.089844 65.605469 C 194.089844 64.367188 193.085938 63.359375 191.847656 63.359375 L 185.839844 63.359375 C 184.601562 63.359375 183.59375 64.367188 183.59375 65.605469 C 183.59375 66.847656 184.601562 67.855469 185.839844 67.855469 Z M 179.714844 67.855469 C 180.953125 67.855469 181.960938 66.847656 181.960938 65.605469 C 181.960938 64.367188 180.953125 63.359375 179.714844 63.359375 L 173.710938 63.359375 C 172.472656 63.359375 171.464844 64.367188 171.464844 65.605469 C 171.464844 66.847656 172.472656 67.855469 173.710938 67.855469 Z M 150.734375 47.351562 L 156.742188 47.351562 C 157.976562 47.351562 158.984375 46.34375 158.984375 45.105469 C 158.984375 43.863281 157.976562 42.855469 156.742188 42.855469 L 150.734375 42.855469 C 149.496094 42.855469 148.488281 43.863281 148.488281 45.105469 C 148.488281 46.34375 149.496094 47.351562 150.734375 47.351562 Z M 150.734375 40.515625 L 170.960938 40.515625 C 172.199219 40.515625 173.207031 39.511719 173.207031 38.269531 C 173.207031 37.03125 172.199219 36.023438 170.960938 36.023438 L 150.734375 36.023438 C 149.496094 36.023438 148.488281 37.03125 148.488281 38.269531 C 148.488281 39.511719 149.496094 40.515625 150.734375 40.515625 Z M 194.421875 337.527344 L 51.667969 337.527344 C 45.789062 337.527344 41.023438 342.296875 41.023438 348.183594 C 41.023438 354.074219 45.789062 358.84375 51.667969 358.84375 L 194.421875 358.84375 C 200.300781 358.84375 205.0625 354.074219 205.0625 348.183594 C 205.0625 342.296875 200.300781 337.527344 194.421875 337.527344 Z M 359.113281 114.839844 C 359.113281 114.40625 358.761719 114.054688 358.328125 114.054688 L 319.765625 114.054688 C 319.332031 114.054688 318.980469 114.40625 318.980469 114.839844 C 318.980469 115.273438 319.332031 115.625 319.765625 115.625 L 358.328125 115.625 C 358.761719 115.625 359.113281 115.273438 359.113281 114.839844 Z M 340.996094 127.136719 L 347.605469 127.136719 C 348.039062 127.136719 348.390625 126.789062 348.390625 126.351562 C 348.390625 125.921875 348.039062 125.566406 347.605469 125.566406 L 340.996094 125.566406 C 340.5625 125.566406 340.210938 125.921875 340.210938 126.351562 C 340.210938 126.789062 340.5625 127.136719 340.996094 127.136719 Z M 356.542969 131.484375 C 356.542969 131.054688 356.191406 130.699219 355.757812 130.699219 L 340.351562 130.699219 C 339.917969 130.699219 339.566406 131.054688 339.566406 131.484375 C 339.566406 131.917969 339.917969 132.269531 340.351562 132.269531 L 355.757812 132.269531 C 356.191406 132.269531 356.542969 131.917969 356.542969 131.484375 Z M 339.707031 137.402344 L 347.617188 137.402344 C 348.054688 137.402344 348.402344 137.050781 348.402344 136.617188 C 348.402344 136.183594 348.054688 135.832031 347.617188 135.832031 L 339.707031 135.832031 C 339.277344 135.832031 338.921875 136.183594 338.921875 136.617188 C 338.921875 137.050781 339.277344 137.402344 339.707031 137.402344 Z M 335.074219 170.148438 C 334.636719 170.148438 334.289062 170.496094 334.289062 170.933594 C 334.289062 171.363281 334.636719 171.71875 335.074219 171.71875 L 341.679688 171.71875 C 342.113281 171.71875 342.464844 171.363281 342.464844 170.933594 C 342.464844 170.496094 342.113281 170.148438 341.679688 170.148438 Z M 350.617188 176.0625 C 350.617188 175.628906 350.265625 175.277344 349.832031 175.277344 L 334.425781 175.277344 C 333.992188 175.277344 333.640625 175.628906 333.640625 176.0625 C 333.640625 176.496094 333.992188 176.847656 334.425781 176.847656 L 349.832031 176.847656 C 350.265625 176.847656 350.617188 176.496094 350.617188 176.0625 Z M 342.476562 181.195312 C 342.476562 180.757812 342.128906 180.410156 341.691406 180.410156 L 333.78125 180.410156 C 333.351562 180.410156 333 180.757812 333 181.195312 C 333 181.628906 333.351562 181.980469 333.78125 181.980469 L 341.691406 181.980469 C 342.128906 181.980469 342.476562 181.628906 342.476562 181.195312 Z M 325.597656 132.078125 C 325.597656 131.644531 325.246094 131.292969 324.8125 131.292969 L 311.597656 131.292969 C 311.164062 131.292969 310.8125 131.644531 310.8125 132.078125 C 310.8125 132.515625 311.164062 132.863281 311.597656 132.863281 L 324.8125 132.863281 C 325.246094 132.863281 325.597656 132.515625 325.597656 132.078125 Z M 318.980469 142.34375 C 318.980469 141.910156 318.628906 141.558594 318.195312 141.558594 L 306.648438 141.558594 C 306.214844 141.558594 305.863281 141.910156 305.863281 142.34375 C 305.863281 142.777344 306.214844 143.128906 306.648438 143.128906 L 318.195312 143.128906 C 318.628906 143.128906 318.980469 142.777344 318.980469 142.34375 Z M 316.21875 206.804688 C 316.21875 206.371094 315.871094 206.019531 315.433594 206.019531 L 294.644531 206.019531 C 294.210938 206.019531 293.859375 206.371094 293.859375 206.804688 C 293.859375 207.238281 294.210938 207.589844 294.644531 207.589844 L 315.433594 207.589844 C 315.871094 207.589844 316.21875 207.238281 316.21875 206.804688 Z M 257.238281 120.632812 L 199.894531 120.632812 C 197.730469 120.632812 195.753906 122.390625 195.480469 124.558594 L 194.535156 132.078125 L 259.722656 132.078125 L 260.664062 124.558594 C 260.9375 122.390625 259.402344 120.632812 257.238281 120.632812 Z M 250.664062 179.675781 C 250.664062 179.242188 250.3125 178.890625 249.882812 178.890625 L 242.882812 178.890625 C 242.453125 178.890625 242.101562 179.242188 242.101562 179.675781 C 242.101562 180.109375 242.453125 180.460938 242.882812 180.460938 L 249.882812 180.460938 C 250.3125 180.460938 250.664062 180.109375 250.664062 179.675781 Z M 233.789062 183.445312 C 233.789062 183.011719 233.4375 182.660156 233.003906 182.660156 L 226.449219 182.660156 C 226.019531 182.660156 225.667969 183.011719 225.667969 183.445312 C 225.667969 183.878906 226.019531 184.230469 226.449219 184.230469 L 233.003906 184.230469 C 233.4375 184.230469 233.789062 183.878906 233.789062 183.445312 Z M 220.226562 179.675781 C 220.226562 179.242188 219.875 178.890625 219.441406 178.890625 L 212.445312 178.890625 C 212.007812 178.890625 211.660156 179.242188 211.660156 179.675781 C 211.660156 180.109375 212.007812 180.460938 212.445312 180.460938 L 219.441406 180.460938 C 219.875 180.460938 220.226562 180.109375 220.226562 179.675781 Z M 201.167969 210.027344 L 195.195312 210.027344 C 194.371094 210.027344 193.621094 210.699219 193.515625 211.523438 C 193.414062 212.34375 193.996094 213.015625 194.820312 213.015625 L 200.796875 213.015625 C 201.617188 213.015625 202.371094 212.34375 202.476562 211.523438 C 202.574219 210.699219 201.992188 210.027344 201.167969 210.027344 Z M 195.035156 199.804688 C 195.675781 199.804688 196.257812 199.28125 196.339844 198.640625 C 196.421875 198 195.96875 197.476562 195.328125 197.476562 C 194.6875 197.476562 194.101562 198 194.023438 198.640625 C 193.9375 199.28125 194.394531 199.804688 195.035156 199.804688 Z M 194.351562 183.445312 C 194.351562 183.878906 194.699219 184.230469 195.132812 184.230469 L 199.945312 184.230469 C 200.378906 184.230469 200.730469 183.878906 200.730469 183.445312 C 200.730469 183.011719 200.378906 182.660156 199.945312 182.660156 L 195.132812 182.660156 C 194.699219 182.660156 194.351562 183.011719 194.351562 183.445312 Z M 225.144531 142.34375 C 225.144531 141.910156 224.792969 141.558594 224.359375 141.558594 L 209.546875 141.558594 C 209.113281 141.558594 208.761719 141.910156 208.761719 142.34375 C 208.761719 142.777344 209.113281 143.128906 209.546875 143.128906 L 224.359375 143.128906 C 224.792969 143.128906 225.144531 142.777344 225.144531 142.34375 Z M 275.328125 227.328125 C 275.328125 227.765625 275.675781 228.113281 276.113281 228.113281 L 306.101562 228.113281 C 306.539062 228.113281 306.886719 227.765625 306.886719 227.328125 C 306.886719 226.898438 306.539062 226.542969 306.101562 226.542969 L 276.113281 226.542969 C 275.675781 226.542969 275.328125 226.898438 275.328125 227.328125 Z M 282.128906 173.132812 C 282.128906 173.566406 282.480469 173.917969 282.914062 173.917969 L 290.824219 173.917969 C 291.257812 173.917969 291.609375 173.566406 291.609375 173.132812 C 291.609375 172.695312 291.257812 172.347656 290.824219 172.347656 L 282.914062 172.347656 C 282.480469 172.347656 282.128906 172.695312 282.128906 173.132812 Z M 284.707031 152.605469 C 284.707031 153.039062 285.058594 153.390625 285.492188 153.390625 L 295.019531 153.390625 C 295.457031 153.390625 295.804688 153.039062 295.804688 152.605469 C 295.804688 152.171875 295.457031 151.820312 295.019531 151.820312 L 285.492188 151.820312 C 285.058594 151.820312 284.707031 152.171875 284.707031 152.605469 Z M 286.636719 137.210938 C 286.636719 137.644531 286.988281 137.996094 287.421875 137.996094 L 294.027344 137.996094 C 294.464844 137.996094 294.8125 137.644531 294.8125 137.210938 C 294.8125 136.777344 294.464844 136.425781 294.027344 136.425781 L 287.421875 136.425781 C 286.988281 136.425781 286.636719 136.777344 286.636719 137.210938 Z M 312.898438 152.605469 C 312.898438 152.171875 312.546875 151.820312 312.113281 151.820312 L 298.449219 151.820312 C 298.015625 151.820312 297.664062 152.171875 297.664062 152.605469 C 297.664062 153.039062 298.015625 153.390625 298.449219 153.390625 L 312.113281 153.390625 C 312.546875 153.390625 312.898438 153.039062 312.898438 152.605469 Z M 314.976562 168.785156 C 315.410156 168.785156 315.757812 168.433594 315.757812 168 C 315.757812 167.566406 315.410156 167.214844 314.976562 167.214844 L 303.429688 167.214844 C 302.996094 167.214844 302.644531 167.566406 302.644531 168 C 302.644531 168.433594 302.996094 168.785156 303.429688 168.785156 Z M 364.117188 117.457031 L 351.96875 227.1875 C 351.609375 230.429688 348.878906 232.875 345.625 232.875 L 175.515625 232.875 C 173.671875 232.875 171.984375 232.117188 170.761719 230.746094 C 170.515625 230.472656 170.304688 230.183594 170.117188 229.882812 C 168.347656 242.453125 159.882812 256.636719 159.882812 267.695312 C 159.882812 279.84375 169.128906 297.265625 169.128906 297.265625 C 169.128906 297.265625 165.847656 324.464844 132.539062 324.464844 C 120.5 324.464844 112.003906 322.351562 107.628906 320.921875 C 105.359375 320.179688 103.6875 318.269531 103.175781 315.933594 C 99.304688 298.332031 101.929688 273.34375 104.660156 264.554688 C 106.507812 258.613281 104.332031 228.191406 97.210938 206.503906 C 93.574219 195.441406 101.804688 184.054688 113.433594 184.054688 L 116.1875 175.277344 C 116.1875 175.277344 124.945312 171.035156 134.203125 172.921875 C 143.457031 174.808594 147.878906 177.355469 151.328125 177.839844 L 149.089844 184.105469 C 152.90625 184.4375 156.320312 186.714844 158.066406 190.183594 C 161.832031 197.675781 167.820312 210.546875 169.785156 220.21875 L 181.316406 116.050781 C 181.675781 112.808594 184.402344 110.363281 187.660156 110.363281 L 357.769531 110.363281 C 359.609375 110.363281 361.300781 111.121094 362.527344 112.492188 C 363.753906 113.863281 364.316406 115.628906 364.117188 117.457031 Z M 204.785156 125.191406 C 204.148438 125.191406 203.5625 125.714844 203.480469 126.355469 C 203.398438 126.996094 203.851562 127.515625 204.492188 127.515625 C 205.132812 127.515625 205.71875 126.996094 205.796875 126.355469 C 205.882812 125.714844 205.429688 125.191406 204.785156 125.191406 Z M 209.179688 125.191406 C 208.539062 125.191406 207.953125 125.714844 207.871094 126.355469 C 207.792969 126.996094 208.246094 127.515625 208.886719 127.515625 C 209.527344 127.515625 210.113281 126.996094 210.191406 126.355469 C 210.273438 125.714844 209.816406 125.191406 209.179688 125.191406 Z M 88.972656 121.605469 L 79.636719 121.605469 L 79.636719 142 L 88.972656 142 Z M 56.210938 142 L 65.546875 142 L 65.546875 124.433594 L 56.210938 124.433594 Z M 42.125 142 L 32.785156 142 L 32.785156 130.558594 L 42.125 130.558594 L 42.125 142 " fill-opacity="1" fill-rule="nonzero"/></g><g clip-path="url(#ae28718e7c)"><path fill="#f3d0d2" d="M 64.039062 62.289062 C 68.207031 62.289062 71.585938 58.902344 71.585938 54.730469 C 71.585938 50.554688 68.207031 47.167969 64.039062 47.167969 C 59.871094 47.167969 56.492188 50.554688 56.492188 54.730469 C 56.492188 58.902344 59.871094 62.289062 64.039062 62.289062 Z M 41.832031 23.601562 C 41.832031 24.734375 42.75 25.65625 43.886719 25.65625 C 45.019531 25.65625 45.933594 24.734375 45.933594 23.601562 C 45.933594 22.46875 45.019531 21.546875 43.886719 21.546875 C 42.75 21.546875 41.832031 22.46875 41.832031 23.601562 Z M 47.03125 41.570312 L 49.792969 45.894531 C 48.851562 47.414062 48.148438 49.09375 47.730469 50.886719 L 42.722656 51.988281 L 42.722656 57.464844 L 47.730469 58.570312 C 48.148438 60.363281 48.851562 62.042969 49.792969 63.5625 L 47.03125 67.886719 L 50.898438 71.757812 L 55.21875 68.996094 C 56.738281 69.9375 58.414062 70.640625 60.203125 71.058594 L 61.304688 76.078125 L 66.773438 76.078125 L 67.875 71.058594 C 69.664062 70.640625 71.339844 69.9375 72.859375 68.996094 L 77.179688 71.757812 L 81.046875 67.886719 L 78.285156 63.5625 C 79.222656 62.042969 79.929688 60.363281 80.347656 58.570312 L 85.359375 57.464844 L 85.359375 51.988281 L 80.347656 50.886719 C 79.929688 49.09375 79.222656 47.414062 78.285156 45.894531 L 81.046875 41.570312 L 77.179688 37.695312 L 72.859375 40.460938 C 71.339844 39.519531 69.664062 38.8125 67.875 38.398438 L 66.773438 33.378906 L 61.304688 33.378906 L 60.203125 38.398438 C 58.414062 38.8125 56.738281 39.519531 55.21875 40.460938 L 50.898438 37.695312 Z M 90.28125 59.617188 L 111.613281 59.617188 L 111.613281 54.730469 L 90.28125 54.730469 Z M 90.28125 38.269531 L 111.613281 38.269531 L 111.613281 33.378906 L 90.28125 33.378906 Z M 67.972656 82.046875 L 55.835938 82.046875 L 55.835938 82.832031 L 67.972656 82.832031 Z M 67.972656 84.664062 L 62.894531 84.664062 L 62.894531 85.449219 L 67.972656 85.449219 Z M 60.914062 85.449219 L 60.914062 84.664062 L 55.835938 84.664062 L 55.835938 85.449219 Z M 63.820312 87.285156 L 55.835938 87.285156 L 55.835938 88.070312 L 63.820312 88.070312 Z M 121.007812 77.421875 L 135.195312 77.421875 L 135.195312 55.746094 L 121.007812 55.746094 Z M 121.007812 54.960938 L 135.195312 54.960938 L 135.195312 33.292969 L 121.007812 33.292969 Z M 143.066406 79.273438 C 143.066406 80.082031 143.71875 80.738281 144.523438 80.738281 L 144.660156 80.738281 C 145.46875 80.738281 146.121094 80.082031 146.121094 79.273438 C 146.121094 78.464844 145.46875 77.8125 144.660156 77.8125 L 144.523438 77.8125 C 143.71875 77.8125 143.066406 78.464844 143.066406 79.273438 Z M 143.066406 72.441406 C 143.066406 73.246094 143.71875 73.902344 144.523438 73.902344 L 144.660156 73.902344 C 145.46875 73.902344 146.121094 73.246094 146.121094 72.441406 C 146.121094 71.632812 145.46875 70.976562 144.660156 70.976562 L 144.523438 70.976562 C 143.71875 70.976562 143.066406 71.632812 143.066406 72.441406 Z M 143.066406 65.609375 C 143.066406 66.414062 143.71875 67.070312 144.523438 67.070312 L 144.660156 67.070312 C 145.46875 67.070312 146.121094 66.414062 146.121094 65.609375 C 146.121094 64.796875 145.46875 64.144531 144.660156 64.144531 L 144.523438 64.144531 C 143.71875 64.144531 143.066406 64.796875 143.066406 65.609375 Z M 143.066406 58.773438 C 143.066406 59.578125 143.71875 60.234375 144.523438 60.234375 L 144.660156 60.234375 C 145.46875 60.234375 146.121094 59.578125 146.121094 58.773438 C 146.121094 57.964844 145.46875 57.308594 144.660156 57.308594 L 144.523438 57.308594 C 143.71875 57.308594 143.066406 57.964844 143.066406 58.773438 Z M 143.066406 51.9375 C 143.066406 52.746094 143.71875 53.398438 144.523438 53.398438 L 144.660156 53.398438 C 145.46875 53.398438 146.121094 52.746094 146.121094 51.9375 C 146.121094 51.128906 145.46875 50.476562 144.660156 50.476562 L 144.523438 50.476562 C 143.71875 50.476562 143.066406 51.128906 143.066406 51.9375 Z M 143.066406 45.105469 C 143.066406 45.910156 143.71875 46.566406 144.523438 46.566406 L 144.660156 46.566406 C 145.46875 46.566406 146.121094 45.910156 146.121094 45.105469 C 146.121094 44.296875 145.46875 43.640625 144.660156 43.640625 L 144.523438 43.640625 C 143.71875 43.640625 143.066406 44.296875 143.066406 45.105469 Z M 143.066406 38.269531 C 143.066406 39.078125 143.71875 39.730469 144.523438 39.730469 L 144.660156 39.730469 C 145.46875 39.730469 146.121094 39.078125 146.121094 38.269531 C 146.121094 37.460938 145.46875 36.808594 144.660156 36.808594 L 144.523438 36.808594 C 143.71875 36.808594 143.066406 37.460938 143.066406 38.269531 Z M 143.066406 31.4375 C 143.066406 32.242188 143.71875 32.898438 144.523438 32.898438 L 144.660156 32.898438 C 145.46875 32.898438 146.121094 32.242188 146.121094 31.4375 C 146.121094 30.628906 145.46875 29.972656 144.660156 29.972656 L 144.523438 29.972656 C 143.71875 29.972656 143.066406 30.628906 143.066406 31.4375 Z M 143.066406 23.601562 C 143.066406 24.734375 143.980469 25.65625 145.113281 25.65625 C 146.246094 25.65625 147.167969 24.734375 147.167969 23.601562 C 147.167969 22.46875 146.246094 21.546875 145.113281 21.546875 C 143.980469 21.546875 143.066406 22.46875 143.066406 23.601562 Z M 149.269531 79.273438 C 149.269531 80.082031 149.925781 80.738281 150.734375 80.738281 L 163.117188 80.738281 C 163.925781 80.738281 164.582031 80.082031 164.582031 79.273438 C 164.582031 78.464844 163.925781 77.8125 163.117188 77.8125 L 150.734375 77.8125 C 149.925781 77.8125 149.269531 78.464844 149.269531 79.273438 Z M 149.269531 72.441406 C 149.269531 73.246094 149.925781 73.902344 150.734375 73.902344 L 177.238281 73.902344 C 178.042969 73.902344 178.699219 73.246094 178.699219 72.441406 C 178.699219 71.632812 178.042969 70.976562 177.238281 70.976562 L 150.734375 70.976562 C 149.925781 70.976562 149.269531 71.632812 149.269531 72.441406 Z M 149.269531 65.609375 C 149.269531 66.414062 149.925781 67.070312 150.734375 67.070312 L 167.71875 67.070312 C 168.527344 67.070312 169.183594 66.414062 169.183594 65.609375 C 169.183594 64.796875 168.527344 64.144531 167.71875 64.144531 L 150.734375 64.144531 C 149.925781 64.144531 149.269531 64.796875 149.269531 65.609375 Z M 149.269531 58.773438 C 149.269531 59.578125 149.925781 60.234375 150.734375 60.234375 L 173.160156 60.234375 C 173.964844 60.234375 174.617188 59.578125 174.617188 58.773438 C 174.617188 57.964844 173.964844 57.308594 173.160156 57.308594 L 150.734375 57.308594 C 149.925781 57.308594 149.269531 57.964844 149.269531 58.773438 Z M 149.269531 51.9375 C 149.269531 52.746094 149.925781 53.398438 150.734375 53.398438 L 180.164062 53.398438 C 180.972656 53.398438 181.625 52.746094 181.625 51.9375 C 181.625 51.128906 180.972656 50.476562 180.164062 50.476562 L 150.734375 50.476562 C 149.925781 50.476562 149.269531 51.128906 149.269531 51.9375 Z M 149.269531 45.105469 C 149.269531 45.910156 149.925781 46.566406 150.734375 46.566406 L 156.742188 46.566406 C 157.546875 46.566406 158.203125 45.910156 158.203125 45.105469 C 158.203125 44.296875 157.546875 43.640625 156.742188 43.640625 L 150.734375 43.640625 C 149.925781 43.640625 149.269531 44.296875 149.269531 45.105469 Z M 149.269531 38.269531 C 149.269531 39.078125 149.925781 39.730469 150.734375 39.730469 L 170.960938 39.730469 C 171.769531 39.730469 172.421875 39.078125 172.421875 38.269531 C 172.421875 37.460938 171.769531 36.808594 170.960938 36.808594 L 150.734375 36.808594 C 149.925781 36.808594 149.269531 37.460938 149.269531 38.269531 Z M 149.269531 31.4375 C 149.269531 32.242188 149.925781 32.898438 150.734375 32.898438 L 160.023438 32.898438 C 160.828125 32.898438 161.480469 32.242188 161.480469 31.4375 C 161.480469 30.628906 160.828125 29.972656 160.023438 29.972656 L 150.734375 29.972656 C 149.925781 29.972656 149.269531 30.628906 149.269531 31.4375 Z M 150.832031 23.601562 C 150.832031 24.734375 151.75 25.65625 152.882812 25.65625 C 154.015625 25.65625 154.9375 24.734375 154.9375 23.601562 C 154.9375 22.46875 154.015625 21.546875 152.882812 21.546875 C 151.75 21.546875 150.832031 22.46875 150.832031 23.601562 Z M 193.414062 43.640625 L 163.980469 43.640625 C 163.175781 43.640625 162.523438 44.296875 162.523438 45.105469 C 162.523438 45.910156 163.175781 46.566406 163.980469 46.566406 L 193.414062 46.566406 C 194.21875 46.566406 194.875 45.910156 194.875 45.105469 C 194.875 44.296875 194.21875 43.640625 193.414062 43.640625 Z M 194.039062 51.9375 C 194.039062 51.128906 193.386719 50.476562 192.578125 50.476562 L 186.570312 50.476562 C 185.765625 50.476562 185.109375 51.128906 185.109375 51.9375 C 185.109375 52.746094 185.765625 53.398438 186.570312 53.398438 L 192.578125 53.398438 C 193.386719 53.398438 194.039062 52.746094 194.039062 51.9375 Z M 193.304688 65.609375 C 193.304688 64.796875 192.652344 64.144531 191.847656 64.144531 L 185.839844 64.144531 C 185.035156 64.144531 184.378906 64.796875 184.378906 65.609375 C 184.378906 66.414062 185.035156 67.070312 185.839844 67.070312 L 191.847656 67.070312 C 192.652344 67.070312 193.304688 66.414062 193.304688 65.609375 Z M 181.175781 65.609375 C 181.175781 64.796875 180.523438 64.144531 179.714844 64.144531 L 173.707031 64.144531 C 172.902344 64.144531 172.25 64.796875 172.25 65.609375 C 172.25 66.414062 172.902344 67.070312 173.707031 67.070312 L 179.714844 67.070312 C 180.523438 67.070312 181.175781 66.414062 181.175781 65.609375 Z M 186.957031 79.273438 C 186.957031 78.464844 186.304688 77.8125 185.496094 77.8125 L 168.511719 77.8125 C 167.703125 77.8125 167.050781 78.464844 167.050781 79.273438 C 167.050781 80.082031 167.703125 80.738281 168.511719 80.738281 L 185.496094 80.738281 C 186.304688 80.738281 186.957031 80.082031 186.957031 79.273438 Z M 227.160156 77.421875 L 245.726562 77.421875 L 245.726562 55.746094 L 227.160156 55.746094 Z M 227.160156 54.960938 L 245.726562 54.960938 L 245.726562 33.292969 L 227.160156 33.292969 Z M 254.554688 76.078125 L 331.058594 76.078125 L 331.058594 36.808594 L 254.554688 36.808594 Z M 262.324219 23.601562 C 262.324219 24.734375 263.242188 25.65625 264.375 25.65625 C 265.507812 25.65625 266.429688 24.734375 266.429688 23.601562 C 266.429688 22.46875 265.507812 21.546875 264.375 21.546875 C 263.242188 21.546875 262.324219 22.46875 262.324219 23.601562 Z M 315.949219 80.34375 L 303.808594 80.34375 L 303.808594 81.128906 L 315.949219 81.128906 Z M 315.949219 82.960938 L 310.867188 82.960938 L 310.867188 83.746094 L 315.949219 83.746094 Z M 308.890625 83.746094 L 308.890625 82.960938 L 303.808594 82.960938 L 303.808594 83.746094 Z M 311.792969 85.582031 L 303.808594 85.582031 L 303.808594 86.367188 L 311.792969 86.367188 Z M 290.851562 80.34375 L 278.710938 80.34375 L 278.710938 81.128906 L 290.851562 81.128906 Z M 290.851562 82.960938 L 285.769531 82.960938 L 285.769531 83.746094 L 290.851562 83.746094 Z M 283.792969 83.746094 L 283.792969 82.960938 L 278.710938 82.960938 L 278.710938 83.746094 Z M 286.695312 85.582031 L 278.710938 85.582031 L 278.710938 86.367188 L 286.695312 86.367188 Z M 29.042969 93.277344 L 29.042969 20.332031 C 29.042969 18.164062 30.796875 16.40625 32.964844 16.40625 L 117.085938 16.40625 C 119.25 16.40625 121.007812 18.164062 121.007812 20.332031 L 121.007812 32.507812 L 135.195312 32.507812 L 135.195312 20.332031 C 135.195312 18.164062 136.949219 16.40625 139.117188 16.40625 L 223.238281 16.40625 C 225.402344 16.40625 227.160156 18.164062 227.160156 20.332031 L 227.160156 32.507812 L 245.726562 32.507812 L 245.726562 20.332031 C 245.726562 18.164062 247.484375 16.40625 249.648438 16.40625 L 333.765625 16.40625 C 335.9375 16.40625 337.6875 18.164062 337.6875 20.332031 L 337.6875 77.421875 L 347.824219 77.421875 C 347.984375 77.679688 348.128906 77.945312 348.28125 78.207031 L 337.6875 78.207031 L 337.6875 93.277344 C 337.6875 95.449219 335.9375 97.207031 333.765625 97.207031 L 249.648438 97.207031 C 247.484375 97.207031 245.726562 95.449219 245.726562 93.277344 L 245.726562 78.207031 L 227.160156 78.207031 L 227.160156 85.109375 C 227.160156 87.277344 225.402344 89.035156 223.238281 89.035156 L 139.117188 89.035156 C 136.949219 89.035156 135.195312 87.277344 135.195312 85.109375 L 135.195312 78.207031 L 121.007812 78.207031 L 121.007812 93.277344 C 121.007812 95.449219 119.25 97.207031 117.085938 97.207031 L 32.964844 97.207031 C 30.796875 97.207031 29.042969 95.449219 29.042969 93.277344 Z M 299.058594 114.054688 C 298.628906 114.054688 298.273438 114.40625 298.273438 114.839844 C 298.273438 115.273438 298.628906 115.625 299.058594 115.625 L 314.902344 115.625 C 315.335938 115.625 315.683594 115.273438 315.683594 114.839844 C 315.683594 114.40625 315.335938 114.054688 314.902344 114.054688 Z M 316.21875 206.804688 C 316.21875 206.371094 315.871094 206.019531 315.433594 206.019531 L 294.644531 206.019531 C 294.210938 206.019531 293.859375 206.371094 293.859375 206.804688 C 293.859375 207.238281 294.210938 207.589844 294.644531 207.589844 L 315.433594 207.589844 C 315.871094 207.589844 316.21875 207.238281 316.21875 206.804688 Z M 307.53125 222.199219 C 307.53125 221.765625 307.179688 221.414062 306.746094 221.414062 L 276.753906 221.414062 C 276.324219 221.414062 275.972656 221.765625 275.972656 222.199219 C 275.972656 222.632812 276.324219 222.984375 276.753906 222.984375 L 306.746094 222.984375 C 307.179688 222.984375 307.53125 222.632812 307.53125 222.199219 Z M 306.886719 227.328125 C 306.886719 226.898438 306.539062 226.542969 306.101562 226.542969 L 276.113281 226.542969 C 275.675781 226.542969 275.328125 226.898438 275.328125 227.328125 C 275.328125 227.765625 275.675781 228.113281 276.113281 228.113281 L 306.101562 228.113281 C 306.539062 228.113281 306.886719 227.765625 306.886719 227.328125 Z M 277.257812 211.933594 C 277.257812 212.371094 277.609375 212.71875 278.042969 212.71875 L 302.277344 212.71875 C 302.710938 212.71875 303.0625 212.371094 303.0625 211.933594 C 303.0625 211.5 302.710938 211.148438 302.277344 211.148438 L 278.042969 211.148438 C 277.609375 211.148438 277.257812 211.5 277.257812 211.933594 Z M 277.90625 206.804688 C 277.90625 207.238281 278.253906 207.589844 278.6875 207.589844 L 289.082031 207.589844 C 289.515625 207.589844 289.867188 207.238281 289.867188 206.804688 C 289.867188 206.371094 289.515625 206.019531 289.082031 206.019531 L 278.6875 206.019531 C 278.253906 206.019531 277.90625 206.371094 277.90625 206.804688 Z M 278.546875 201.675781 C 278.546875 202.105469 278.898438 202.460938 279.332031 202.460938 L 309.324219 202.460938 C 309.757812 202.460938 310.105469 202.105469 310.105469 201.675781 C 310.105469 201.238281 309.757812 200.890625 309.324219 200.890625 L 279.332031 200.890625 C 278.898438 200.890625 278.546875 201.238281 278.546875 201.675781 Z M 272.777344 201.675781 C 272.777344 201.238281 272.421875 200.890625 271.992188 200.890625 L 266.761719 200.890625 C 266.332031 200.890625 265.976562 201.238281 265.976562 201.675781 C 265.976562 202.105469 266.332031 202.460938 266.761719 202.460938 L 271.992188 202.460938 C 272.421875 202.460938 272.777344 202.105469 272.777344 201.675781 Z M 272.128906 206.804688 C 272.128906 206.371094 271.78125 206.019531 271.34375 206.019531 L 266.117188 206.019531 C 265.683594 206.019531 265.335938 206.371094 265.335938 206.804688 C 265.335938 207.238281 265.683594 207.589844 266.117188 207.589844 L 271.34375 207.589844 C 271.78125 207.589844 272.128906 207.238281 272.128906 206.804688 Z M 271.488281 211.933594 C 271.488281 211.5 271.136719 211.148438 270.703125 211.148438 L 265.472656 211.148438 C 265.039062 211.148438 264.6875 211.5 264.6875 211.933594 C 264.6875 212.371094 265.039062 212.71875 265.472656 212.71875 L 270.703125 212.71875 C 271.136719 212.71875 271.488281 212.371094 271.488281 211.933594 Z M 270.199219 222.199219 C 270.199219 221.765625 269.847656 221.414062 269.414062 221.414062 L 264.1875 221.414062 C 263.753906 221.414062 263.402344 221.765625 263.402344 222.199219 C 263.402344 222.632812 263.753906 222.984375 264.1875 222.984375 L 269.414062 222.984375 C 269.847656 222.984375 270.199219 222.632812 270.199219 222.199219 Z M 269.554688 227.328125 C 269.554688 226.898438 269.203125 226.542969 268.773438 226.542969 L 263.542969 226.542969 C 263.105469 226.542969 262.757812 226.898438 262.757812 227.328125 C 262.757812 227.765625 263.105469 228.113281 263.542969 228.113281 L 268.773438 228.113281 C 269.203125 228.113281 269.554688 227.765625 269.554688 227.328125 Z M 326.59375 198.515625 L 322.277344 232.875 L 312.863281 232.875 C 312.945312 232.753906 313 232.617188 313 232.460938 C 313 232.027344 312.648438 231.675781 312.214844 231.675781 L 291.425781 231.675781 C 290.992188 231.675781 290.640625 232.027344 290.640625 232.460938 C 290.640625 232.617188 290.695312 232.753906 290.773438 232.875 L 286.511719 232.875 C 286.589844 232.753906 286.648438 232.617188 286.648438 232.460938 C 286.648438 232.027344 286.296875 231.675781 285.863281 231.675781 L 275.464844 231.675781 C 275.035156 231.675781 274.683594 232.027344 274.683594 232.460938 C 274.683594 232.617188 274.738281 232.753906 274.816406 232.875 L 268.773438 232.875 C 268.855469 232.753906 268.910156 232.617188 268.910156 232.460938 C 268.910156 232.027344 268.5625 231.675781 268.125 231.675781 L 262.898438 231.675781 C 262.464844 231.675781 262.113281 232.027344 262.113281 232.460938 C 262.113281 232.617188 262.167969 232.753906 262.25 232.875 L 257.09375 232.875 L 261.40625 198.515625 C 261.679688 196.347656 263.65625 194.589844 265.820312 194.589844 L 323.164062 194.589844 C 325.328125 194.589844 326.863281 196.347656 326.59375 198.515625 Z M 215.257812 210.027344 L 209.28125 210.027344 C 208.457031 210.027344 207.707031 210.699219 207.605469 211.523438 C 207.503906 212.34375 208.085938 213.015625 208.910156 213.015625 L 214.882812 213.015625 C 215.707031 213.015625 216.457031 212.34375 216.5625 211.523438 C 216.664062 210.699219 216.082031 210.027344 215.257812 210.027344 Z M 201.167969 210.027344 L 195.195312 210.027344 C 194.371094 210.027344 193.621094 210.699219 193.515625 211.523438 C 193.414062 212.34375 193.996094 213.015625 194.820312 213.015625 L 200.796875 213.015625 C 201.617188 213.015625 202.371094 212.34375 202.476562 211.523438 C 202.574219 210.699219 201.992188 210.027344 201.167969 210.027344 Z M 190.933594 197.476562 C 190.292969 197.476562 189.707031 198 189.628906 198.640625 C 189.550781 199.28125 190.003906 199.804688 190.644531 199.804688 C 191.28125 199.804688 191.867188 199.28125 191.949219 198.640625 C 192.03125 198 191.574219 197.476562 190.933594 197.476562 Z M 195.035156 199.804688 C 195.675781 199.804688 196.257812 199.28125 196.339844 198.640625 C 196.421875 198 195.96875 197.476562 195.328125 197.476562 C 194.6875 197.476562 194.101562 198 194.023438 198.640625 C 193.9375 199.28125 194.394531 199.804688 195.035156 199.804688 Z M 199.425781 199.804688 C 200.066406 199.804688 200.652344 199.28125 200.730469 198.640625 C 200.8125 198 200.359375 197.476562 199.71875 197.476562 C 199.078125 197.476562 198.496094 198 198.414062 198.640625 C 198.332031 199.28125 198.785156 199.804688 199.425781 199.804688 Z M 211.640625 204.6875 L 199.953125 204.6875 C 199.519531 204.6875 199.167969 205.039062 199.167969 205.472656 C 199.167969 205.910156 199.519531 206.257812 199.953125 206.257812 L 211.640625 206.257812 C 212.074219 206.257812 212.425781 205.910156 212.425781 205.472656 C 212.425781 205.039062 212.074219 204.6875 211.640625 204.6875 Z M 223.511719 194.582031 C 225.679688 194.582031 227.214844 196.34375 226.945312 198.507812 L 225.296875 211.601562 C 225.027344 213.769531 223.050781 215.527344 220.886719 215.527344 L 187.582031 215.527344 C 185.417969 215.527344 183.882812 213.769531 184.152344 211.601562 L 185.796875 198.507812 C 186.070312 196.34375 188.042969 194.582031 190.210938 194.582031 Z M 205.796875 126.355469 C 205.882812 125.714844 205.429688 125.191406 204.785156 125.191406 C 204.148438 125.191406 203.5625 125.714844 203.480469 126.355469 C 203.398438 126.996094 203.851562 127.515625 204.492188 127.515625 C 205.132812 127.515625 205.71875 126.996094 205.796875 126.355469 Z M 247.203125 183.445312 C 247.203125 183.011719 246.851562 182.660156 246.417969 182.660156 L 242.414062 182.660156 C 241.976562 182.660156 241.628906 183.011719 241.628906 183.445312 C 241.628906 183.878906 241.976562 184.230469 242.414062 184.230469 L 246.417969 184.230469 C 246.851562 184.230469 247.203125 183.878906 247.203125 183.445312 Z M 241.457031 143.128906 C 241.886719 143.128906 242.242188 142.777344 242.242188 142.34375 C 242.242188 141.910156 241.886719 141.558594 241.457031 141.558594 L 229.78125 141.558594 C 229.347656 141.558594 228.996094 141.910156 228.996094 142.34375 C 228.996094 142.777344 229.347656 143.128906 229.78125 143.128906 Z M 239.183594 149.21875 L 210.773438 149.21875 C 209.617188 149.21875 208.566406 150.160156 208.421875 151.316406 L 207.558594 158.15625 C 207.417969 159.308594 208.234375 160.25 209.390625 160.25 L 237.796875 160.25 C 238.953125 160.25 240.007812 159.308594 240.152344 158.15625 L 241.007812 151.316406 C 241.15625 150.160156 240.335938 149.21875 239.183594 149.21875 Z M 226.925781 180.460938 L 230.933594 180.460938 C 231.363281 180.460938 231.71875 180.109375 231.71875 179.675781 C 231.71875 179.242188 231.363281 178.890625 230.933594 178.890625 L 226.925781 178.890625 C 226.492188 178.890625 226.140625 179.242188 226.140625 179.675781 C 226.140625 180.109375 226.492188 180.460938 226.925781 180.460938 Z M 233.789062 183.445312 C 233.789062 183.011719 233.4375 182.660156 233.003906 182.660156 L 226.449219 182.660156 C 226.019531 182.660156 225.667969 183.011719 225.667969 183.445312 C 225.667969 183.878906 226.019531 184.230469 226.449219 184.230469 L 233.003906 184.230469 C 233.4375 184.230469 233.789062 183.878906 233.789062 183.445312 Z M 220.226562 179.675781 C 220.226562 179.242188 219.875 178.890625 219.441406 178.890625 L 212.445312 178.890625 C 212.007812 178.890625 211.660156 179.242188 211.660156 179.675781 C 211.660156 180.109375 212.007812 180.460938 212.445312 180.460938 L 219.441406 180.460938 C 219.875 180.460938 220.226562 180.109375 220.226562 179.675781 Z M 216.761719 183.445312 C 216.761719 183.011719 216.410156 182.660156 215.980469 182.660156 L 211.96875 182.660156 C 211.535156 182.660156 211.183594 183.011719 211.183594 183.445312 C 211.183594 183.878906 211.535156 184.230469 211.96875 184.230469 L 215.980469 184.230469 C 216.410156 184.230469 216.761719 183.878906 216.761719 183.445312 Z M 204.40625 179.675781 C 204.40625 179.242188 204.054688 178.890625 203.621094 178.890625 L 195.605469 178.890625 C 195.175781 178.890625 194.820312 179.242188 194.820312 179.675781 C 194.820312 180.109375 195.175781 180.460938 195.605469 180.460938 L 203.621094 180.460938 C 204.054688 180.460938 204.40625 180.109375 204.40625 179.675781 Z M 200.730469 183.445312 C 200.730469 183.011719 200.378906 182.660156 199.945312 182.660156 L 195.132812 182.660156 C 194.699219 182.660156 194.351562 183.011719 194.351562 183.445312 C 194.351562 183.878906 194.699219 184.230469 195.132812 184.230469 L 199.945312 184.230469 C 200.378906 184.230469 200.730469 183.878906 200.730469 183.445312 Z M 208.761719 142.34375 C 208.761719 142.777344 209.113281 143.128906 209.546875 143.128906 L 224.359375 143.128906 C 224.792969 143.128906 225.144531 142.777344 225.144531 142.34375 C 225.144531 141.910156 224.792969 141.558594 224.359375 141.558594 L 209.546875 141.558594 C 209.113281 141.558594 208.761719 141.910156 208.761719 142.34375 Z M 242.101562 179.675781 C 242.101562 180.109375 242.453125 180.460938 242.882812 180.460938 L 249.882812 180.460938 C 250.3125 180.460938 250.664062 180.109375 250.664062 179.675781 C 250.664062 179.242188 250.3125 178.890625 249.882812 178.890625 L 242.882812 178.890625 C 242.453125 178.890625 242.101562 179.242188 242.101562 179.675781 Z M 248.675781 188.839844 L 191.335938 188.839844 C 189.167969 188.839844 187.632812 187.082031 187.90625 184.914062 L 194.535156 132.078125 L 259.722656 132.078125 L 260.664062 124.558594 L 253.089844 184.914062 C 252.820312 187.082031 250.84375 188.839844 248.675781 188.839844 Z M 336.484375 227.308594 L 328.570312 227.308594 C 328.140625 227.308594 327.785156 227.660156 327.785156 228.09375 C 327.785156 228.527344 328.140625 228.878906 328.570312 228.878906 L 336.484375 228.878906 C 336.917969 228.878906 337.269531 228.527344 337.269531 228.09375 C 337.269531 227.660156 336.917969 227.308594 336.484375 227.308594 Z M 340.351562 222.175781 L 329.21875 222.175781 C 328.78125 222.175781 328.433594 222.527344 328.433594 222.960938 C 328.433594 223.398438 328.78125 223.746094 329.21875 223.746094 L 340.351562 223.746094 C 340.785156 223.746094 341.136719 223.398438 341.136719 222.960938 C 341.136719 222.527344 340.785156 222.175781 340.351562 222.175781 Z M 329.859375 218.617188 L 336.46875 218.617188 C 336.902344 218.617188 337.253906 218.261719 337.253906 217.832031 C 337.253906 217.398438 336.902344 217.046875 336.46875 217.046875 L 329.859375 217.046875 C 329.425781 217.046875 329.078125 217.398438 329.078125 217.832031 C 329.078125 218.261719 329.425781 218.617188 329.859375 218.617188 Z M 344.1875 159.082031 L 336.277344 159.082031 C 335.839844 159.082031 335.492188 159.433594 335.492188 159.867188 C 335.492188 160.300781 335.839844 160.652344 336.277344 160.652344 L 344.1875 160.652344 C 344.617188 160.652344 344.972656 160.300781 344.972656 159.867188 C 344.972656 159.433594 344.617188 159.082031 344.1875 159.082031 Z M 348.054688 153.949219 L 336.917969 153.949219 C 336.484375 153.949219 336.136719 154.300781 336.136719 154.734375 C 336.136719 155.167969 336.484375 155.519531 336.917969 155.519531 L 348.054688 155.519531 C 348.488281 155.519531 348.835938 155.167969 348.835938 154.734375 C 348.835938 154.300781 348.488281 153.949219 348.054688 153.949219 Z M 337.5625 148.816406 C 337.132812 148.816406 336.777344 149.171875 336.777344 149.601562 C 336.777344 150.039062 337.132812 150.386719 337.5625 150.386719 L 344.171875 150.386719 C 344.605469 150.386719 344.957031 150.039062 344.957031 149.601562 C 344.957031 149.171875 344.605469 148.816406 344.171875 148.816406 Z M 325.597656 132.078125 C 325.597656 131.644531 325.246094 131.292969 324.8125 131.292969 L 311.597656 131.292969 C 311.164062 131.292969 310.8125 131.644531 310.8125 132.078125 C 310.8125 132.515625 311.164062 132.863281 311.597656 132.863281 L 324.8125 132.863281 C 325.246094 132.863281 325.597656 132.515625 325.597656 132.078125 Z M 318.980469 142.34375 C 318.980469 141.910156 318.628906 141.558594 318.195312 141.558594 L 306.648438 141.558594 C 306.214844 141.558594 305.863281 141.910156 305.863281 142.34375 C 305.863281 142.777344 306.214844 143.128906 306.648438 143.128906 L 318.195312 143.128906 C 318.628906 143.128906 318.980469 142.777344 318.980469 142.34375 Z M 315.757812 168 C 315.757812 167.566406 315.410156 167.214844 314.976562 167.214844 L 303.429688 167.214844 C 302.996094 167.214844 302.644531 167.566406 302.644531 168 C 302.644531 168.433594 302.996094 168.785156 303.429688 168.785156 L 314.976562 168.785156 C 315.410156 168.785156 315.757812 168.433594 315.757812 168 Z M 310.027344 173.132812 C 310.027344 172.695312 309.675781 172.347656 309.242188 172.347656 L 295.289062 172.347656 C 294.855469 172.347656 294.507812 172.695312 294.507812 173.132812 C 294.507812 173.566406 294.855469 173.917969 295.289062 173.917969 L 309.242188 173.917969 C 309.675781 173.917969 310.027344 173.566406 310.027344 173.132812 Z M 302.121094 178.261719 C 302.121094 177.828125 301.765625 177.476562 301.335938 177.476562 L 282.269531 177.476562 C 281.835938 177.476562 281.484375 177.828125 281.484375 178.261719 C 281.484375 178.699219 281.835938 179.046875 282.269531 179.046875 L 301.335938 179.046875 C 301.765625 179.046875 302.121094 178.699219 302.121094 178.261719 Z M 281.507812 132.078125 C 281.507812 131.644531 281.160156 131.292969 280.722656 131.292969 L 275.496094 131.292969 C 275.066406 131.292969 274.710938 131.644531 274.710938 132.078125 C 274.710938 132.515625 275.066406 132.863281 275.496094 132.863281 L 280.722656 132.863281 C 281.160156 132.863281 281.507812 132.515625 281.507812 132.078125 Z M 280.863281 137.210938 C 280.863281 136.777344 280.515625 136.425781 280.078125 136.425781 L 274.851562 136.425781 C 274.417969 136.425781 274.070312 136.777344 274.070312 137.210938 C 274.070312 137.644531 274.417969 137.996094 274.851562 137.996094 L 280.078125 137.996094 C 280.515625 137.996094 280.863281 137.644531 280.863281 137.210938 Z M 280.222656 142.34375 C 280.222656 141.910156 279.871094 141.558594 279.4375 141.558594 L 274.210938 141.558594 C 273.773438 141.558594 273.425781 141.910156 273.425781 142.34375 C 273.425781 142.777344 273.773438 143.128906 274.210938 143.128906 L 279.4375 143.128906 C 279.871094 143.128906 280.222656 142.777344 280.222656 142.34375 Z M 279.578125 147.472656 C 279.578125 147.042969 279.226562 146.6875 278.792969 146.6875 L 273.5625 146.6875 C 273.132812 146.6875 272.777344 147.042969 272.777344 147.472656 C 272.777344 147.90625 273.132812 148.257812 273.5625 148.257812 L 278.792969 148.257812 C 279.226562 148.257812 279.578125 147.90625 279.578125 147.472656 Z M 278.933594 152.605469 C 278.933594 152.171875 278.582031 151.820312 278.148438 151.820312 L 272.921875 151.820312 C 272.488281 151.820312 272.136719 152.171875 272.136719 152.605469 C 272.136719 153.039062 272.488281 153.390625 272.921875 153.390625 L 278.148438 153.390625 C 278.582031 153.390625 278.933594 153.039062 278.933594 152.605469 Z M 277.644531 162.871094 C 277.644531 162.433594 277.296875 162.082031 276.859375 162.082031 L 271.632812 162.082031 C 271.199219 162.082031 270.847656 162.433594 270.847656 162.871094 C 270.847656 163.300781 271.199219 163.65625 271.632812 163.65625 L 276.859375 163.65625 C 277.296875 163.65625 277.644531 163.300781 277.644531 162.871094 Z M 277 168 C 277 167.566406 276.648438 167.214844 276.214844 167.214844 L 270.988281 167.214844 C 270.554688 167.214844 270.203125 167.566406 270.203125 168 C 270.203125 168.433594 270.554688 168.785156 270.988281 168.785156 L 276.214844 168.785156 C 276.648438 168.785156 277 168.433594 277 168 Z M 276.359375 173.132812 C 276.359375 172.695312 276.003906 172.347656 275.574219 172.347656 L 270.34375 172.347656 C 269.910156 172.347656 269.558594 172.695312 269.558594 173.132812 C 269.558594 173.566406 269.910156 173.917969 270.34375 173.917969 L 275.574219 173.917969 C 276.003906 173.917969 276.359375 173.566406 276.359375 173.132812 Z M 275.714844 178.261719 C 275.714844 177.828125 275.363281 177.476562 274.929688 177.476562 L 269.699219 177.476562 C 269.269531 177.476562 268.914062 177.828125 268.914062 178.261719 C 268.914062 178.699219 269.269531 179.046875 269.699219 179.046875 L 274.929688 179.046875 C 275.363281 179.046875 275.714844 178.699219 275.714844 178.261719 Z M 282.128906 173.132812 C 282.128906 173.566406 282.480469 173.917969 282.914062 173.917969 L 290.824219 173.917969 C 291.257812 173.917969 291.609375 173.566406 291.609375 173.132812 C 291.609375 172.695312 291.257812 172.347656 290.824219 172.347656 L 282.914062 172.347656 C 282.480469 172.347656 282.128906 172.695312 282.128906 173.132812 Z M 282.773438 168 C 282.773438 168.433594 283.125 168.785156 283.558594 168.785156 L 298.964844 168.785156 C 299.394531 168.785156 299.75 168.433594 299.75 168 C 299.75 167.566406 299.394531 167.214844 298.964844 167.214844 L 283.558594 167.214844 C 283.125 167.214844 282.773438 167.566406 282.773438 168 Z M 283.417969 162.871094 C 283.417969 163.300781 283.769531 163.65625 284.199219 163.65625 L 290.808594 163.65625 C 291.242188 163.65625 291.59375 163.300781 291.59375 162.871094 C 291.59375 162.433594 291.242188 162.082031 290.808594 162.082031 L 284.199219 162.082031 C 283.769531 162.082031 283.417969 162.433594 283.417969 162.871094 Z M 284.707031 152.605469 C 284.707031 153.039062 285.058594 153.390625 285.492188 153.390625 L 295.019531 153.390625 C 295.457031 153.390625 295.804688 153.039062 295.804688 152.605469 C 295.804688 152.171875 295.457031 151.820312 295.019531 151.820312 L 285.492188 151.820312 C 285.058594 151.820312 284.707031 152.171875 284.707031 152.605469 Z M 285.347656 147.472656 C 285.347656 147.90625 285.703125 148.257812 286.132812 148.257812 L 294.042969 148.257812 C 294.480469 148.257812 294.828125 147.90625 294.828125 147.472656 C 294.828125 147.042969 294.480469 146.6875 294.042969 146.6875 L 286.132812 146.6875 C 285.703125 146.6875 285.347656 147.042969 285.347656 147.472656 Z M 285.992188 142.34375 C 285.992188 142.777344 286.34375 143.128906 286.777344 143.128906 L 302.183594 143.128906 C 302.617188 143.128906 302.96875 142.777344 302.96875 142.34375 C 302.96875 141.910156 302.617188 141.558594 302.183594 141.558594 L 286.777344 141.558594 C 286.34375 141.558594 285.992188 141.910156 285.992188 142.34375 Z M 286.636719 137.210938 C 286.636719 137.644531 286.988281 137.996094 287.421875 137.996094 L 294.027344 137.996094 C 294.464844 137.996094 294.8125 137.644531 294.8125 137.210938 C 294.8125 136.777344 294.464844 136.425781 294.027344 136.425781 L 287.421875 136.425781 C 286.988281 136.425781 286.636719 136.777344 286.636719 137.210938 Z M 287.28125 132.078125 C 287.28125 132.515625 287.632812 132.863281 288.066406 132.863281 L 307.132812 132.863281 C 307.5625 132.863281 307.917969 132.515625 307.917969 132.078125 C 307.917969 131.644531 307.5625 131.292969 307.132812 131.292969 L 288.066406 131.292969 C 287.632812 131.292969 287.28125 131.644531 287.28125 132.078125 Z M 310.78125 137.996094 C 311.214844 137.996094 311.566406 137.644531 311.566406 137.210938 C 311.566406 136.777344 311.214844 136.425781 310.78125 136.425781 L 297.5625 136.425781 C 297.132812 136.425781 296.78125 136.777344 296.78125 137.210938 C 296.78125 137.644531 297.132812 137.996094 297.5625 137.996094 Z M 304.535156 147.472656 C 304.535156 147.042969 304.179688 146.6875 303.75 146.6875 L 298.511719 146.6875 C 298.074219 146.6875 297.726562 147.042969 297.726562 147.472656 C 297.726562 147.90625 298.074219 148.257812 298.511719 148.257812 L 303.75 148.257812 C 304.179688 148.257812 304.535156 147.90625 304.535156 147.472656 Z M 307.5625 162.082031 L 294.34375 162.082031 C 293.914062 162.082031 293.558594 162.433594 293.558594 162.871094 C 293.558594 163.300781 293.914062 163.65625 294.34375 163.65625 L 307.5625 163.65625 C 307.996094 163.65625 308.34375 163.300781 308.34375 162.871094 C 308.34375 162.433594 307.996094 162.082031 307.5625 162.082031 Z M 312.113281 153.390625 C 312.546875 153.390625 312.898438 153.039062 312.898438 152.605469 C 312.898438 152.171875 312.546875 151.820312 312.113281 151.820312 L 298.449219 151.820312 C 298.015625 151.820312 297.664062 152.171875 297.664062 152.605469 C 297.664062 153.039062 298.015625 153.390625 298.449219 153.390625 Z M 328.296875 184.914062 C 328.027344 187.082031 326.050781 188.839844 323.882812 188.839844 L 266.542969 188.839844 C 264.375 188.839844 262.839844 187.082031 263.113281 184.914062 L 270.691406 124.558594 C 270.960938 122.390625 272.9375 120.632812 275.101562 120.632812 L 332.445312 120.632812 C 334.609375 120.632812 336.144531 122.390625 335.875 124.558594 Z M 123.304688 144.789062 L 122.574219 138.761719 C 121.871094 132.914062 123.59375 127.382812 126.898438 123.117188 L 94.773438 123.117188 L 94.773438 144.699219 C 94.773438 144.730469 94.761719 144.757812 94.761719 144.789062 Z M 88.1875 122.390625 L 80.417969 122.390625 L 80.417969 141.214844 L 88.1875 141.214844 Z M 76.476562 123.117188 L 76.476562 120.035156 L 68.707031 120.035156 L 68.707031 141.214844 L 76.476562 141.214844 Z M 64.765625 125.21875 L 56.996094 125.21875 L 56.996094 141.214844 L 64.765625 141.214844 Z M 53.050781 134.671875 L 45.28125 134.671875 L 45.28125 141.214844 L 53.050781 141.214844 Z M 41.339844 131.34375 L 33.570312 131.34375 L 33.570312 141.214844 L 41.339844 141.214844 Z M 120.726562 168.03125 L 2.46875 168.03125 C 2.449219 167.769531 2.429688 167.503906 2.414062 167.246094 L 120.949219 167.246094 L 123.097656 159.65625 C 124.023438 156.386719 124.289062 152.96875 123.882812 149.59375 L 123.398438 145.574219 L 94.664062 145.574219 C 94.265625 147.320312 92.714844 148.628906 90.851562 148.628906 L 32.964844 148.628906 C 31.097656 148.628906 29.542969 147.320312 29.144531 145.574219 L 2.699219 145.574219 C 2.722656 145.3125 2.753906 145.050781 2.78125 144.789062 L 29.050781 144.789062 C 29.050781 144.757812 29.042969 144.730469 29.042969 144.699219 L 29.042969 123.117188 L 6.875 123.117188 C 6.949219 122.851562 7.03125 122.59375 7.109375 122.332031 L 29.042969 122.332031 L 29.042969 114.289062 C 29.042969 112.121094 30.796875 110.363281 32.964844 110.363281 L 90.851562 110.363281 C 93.015625 110.363281 94.773438 112.121094 94.773438 114.289062 L 94.773438 122.332031 L 127.539062 122.332031 C 131.429688 117.773438 137.210938 114.839844 143.75 114.839844 C 150.207031 114.839844 156.042969 117.726562 159.972656 122.332031 L 180.621094 122.332031 L 180.535156 123.117188 L 160.613281 123.117188 C 162.980469 126.175781 164.546875 129.90625 164.964844 134.007812 L 165.179688 136.085938 L 169.648438 144.789062 L 178.136719 144.789062 L 178.046875 145.574219 L 169.9375 145.574219 C 169.953125 146.070312 169.644531 146.554688 169.125 146.703125 L 167.375 147.21875 C 166.863281 147.367188 166.527344 147.851562 166.570312 148.382812 C 166.839844 151.875 167.621094 164.339844 165.179688 165.65625 C 162.335938 167.1875 148.761719 164.441406 148.761719 164.441406 C 148.503906 165.367188 148.292969 166.300781 148.117188 167.246094 L 175.648438 167.246094 L 175.5625 168.03125 L 147.980469 168.03125 C 147.5 170.945312 147.382812 173.90625 147.632812 176.84375 C 144.589844 175.804688 140.523438 174.210938 134.203125 172.921875 C 128.140625 171.6875 122.300781 173.078125 118.984375 174.1875 Z M 102.941406 231.273438 C 101.976562 225.171875 100.707031 218.878906 99.117188 212.945312 L 99.121094 212.945312 C 99.09375 212.839844 99.0625 212.738281 99.035156 212.636719 C 98.46875 210.539062 97.859375 208.484375 97.210938 206.503906 C 95.039062 199.890625 97.105469 193.167969 101.601562 188.824219 C 101.382812 188.921875 101.164062 189.007812 100.949219 189.113281 C 100.582031 189.296875 100.230469 189.496094 99.886719 189.699219 L 5.453125 189.699219 C 5.511719 189.964844 5.5625 190.222656 5.617188 190.484375 L 98.679688 190.484375 C 91.894531 195.359375 89.707031 204.695312 93.902344 212.15625 L 11.628906 212.15625 C 11.71875 212.417969 11.800781 212.683594 11.890625 212.945312 L 94.339844 212.945312 Z M 176.496094 347.398438 C 179.695312 347.398438 182.902344 347.222656 186.113281 346.894531 L 165.597656 346.894531 C 169.21875 347.21875 172.851562 347.398438 176.496094 347.398438 Z M 132.539062 324.464844 C 131.78125 324.464844 131.039062 324.457031 130.308594 324.441406 L 100.914062 324.441406 C 101.347656 324.703125 101.78125 324.960938 102.214844 325.226562 L 243.246094 325.226562 C 243.648438 324.964844 244.050781 324.703125 244.453125 324.441406 L 133.496094 324.441406 C 133.175781 324.445312 132.867188 324.464844 132.539062 324.464844 Z M 101.40625 301.980469 L 71.183594 301.980469 C 71.46875 302.246094 71.757812 302.507812 72.046875 302.769531 L 101.449219 302.769531 C 101.4375 302.507812 101.421875 302.246094 101.40625 301.980469 Z M 167.660156 302.769531 L 272.03125 302.769531 C 272.3125 302.507812 272.59375 302.246094 272.878906 301.980469 L 167.9375 301.980469 C 167.847656 302.238281 167.757812 302.496094 167.660156 302.769531 Z M 102.023438 279.527344 L 49.796875 279.527344 C 50.019531 279.789062 50.242188 280.046875 50.460938 280.3125 L 101.945312 280.3125 C 101.96875 280.046875 101.996094 279.789062 102.023438 279.527344 Z M 105.28125 257.070312 L 33.449219 257.070312 C 33.617188 257.332031 33.785156 257.59375 33.953125 257.855469 L 105.28125 257.855469 C 105.28125 257.597656 105.28125 257.339844 105.28125 257.070312 Z M 226.128906 268.335938 C 227.96875 268.632812 229.773438 268.917969 231.523438 269.183594 L 231.324219 268.875 L 226.671875 267.886719 Z M 267.125 279.527344 L 278.929688 279.527344 L 275.195312 276.917969 L 268.519531 278.445312 Z M 176.5625 234.613281 L 326.152344 234.613281 C 325.996094 234.875 325.847656 235.136719 325.695312 235.398438 L 176.960938 235.398438 C 181.929688 245.039062 186.484375 253.050781 189.234375 257.070312 L 311.753906 257.070312 C 311.570312 257.332031 311.386719 257.59375 311.203125 257.855469 L 189.785156 257.855469 C 190.5 258.847656 191.058594 259.5 191.425781 259.742188 C 194.335938 261.6875 201.539062 263.636719 209.953125 265.386719 L 223.296875 260.34375 C 224.660156 259.828125 226.1875 260.003906 227.398438 260.816406 L 233.992188 265.226562 L 236.742188 269.964844 C 241.886719 270.710938 246.121094 271.269531 248.476562 271.570312 L 255.78125 271.292969 L 271.453125 265.871094 C 272.859375 265.386719 274.414062 265.605469 275.628906 266.472656 L 282.234375 271.167969 L 286.777344 279.527344 L 294.351562 279.527344 C 294.125 279.789062 293.902344 280.050781 293.679688 280.3125 L 287.203125 280.3125 L 287.355469 280.59375 C 287.648438 281.132812 287.425781 281.804688 286.871094 282.058594 C 285.765625 281.980469 284.5 281.429688 283.472656 280.660156 L 283.738281 282.464844 C 283.859375 283.292969 283.1875 284.023438 282.355469 283.960938 C 281.058594 283.867188 279.992188 282.90625 279.769531 281.621094 L 279.539062 280.3125 L 266.113281 280.3125 L 262.902344 282.800781 C 261.386719 283.96875 259.628906 284.753906 257.765625 285.09375 C 256.558594 285.3125 255.308594 285.277344 254.089844 285.109375 L 246.679688 284.085938 L 191.511719 283.695312 C 184.851562 283.414062 179.949219 282.148438 176.214844 280.3125 L 162.144531 280.3125 C 162.105469 280.1875 162.066406 280.0625 162.03125 279.933594 L 162.027344 279.933594 C 161.996094 279.828125 161.96875 279.722656 161.9375 279.617188 C 161.925781 279.589844 161.917969 279.558594 161.910156 279.527344 C 160.734375 275.519531 159.882812 271.367188 159.882812 267.695312 C 159.882812 265.605469 160.191406 263.40625 160.695312 261.121094 C 160.824219 261.144531 160.957031 261.171875 161.089844 261.195312 L 152.8125 245.199219 C 152.378906 245.289062 151.933594 245.339844 151.480469 245.339844 C 147.363281 245.339844 143.300781 241.472656 140.25 235.398438 L 21.285156 235.398438 C 21.160156 235.136719 21.027344 234.878906 20.898438 234.613281 L 139.867188 234.613281 C 137.625 229.882812 135.980469 223.933594 135.351562 217.460938 C 134.84375 212.273438 135.054688 207.421875 135.835938 203.261719 C 135.777344 197.820312 137.242188 193.070312 141.289062 191.179688 C 141.617188 191.027344 141.941406 190.910156 142.269531 190.78125 C 143.425781 190.007812 144.6875 189.585938 146.042969 189.585938 C 146.59375 189.585938 147.140625 189.664062 147.6875 189.792969 C 153.121094 189.917969 157.949219 193.390625 160.238281 199.15625 C 164.816406 210.683594 170.925781 223.640625 176.554688 234.613281 Z M 170.589844 212.945312 L 170.675781 212.15625 L 167.539062 212.15625 C 167.628906 212.417969 167.71875 212.683594 167.804688 212.945312 Z M 173.164062 189.699219 L 157.804688 189.699219 C 157.890625 189.863281 157.984375 190.023438 158.066406 190.183594 C 158.117188 190.28125 158.167969 190.386719 158.21875 190.484375 L 173.078125 190.484375 Z M 357.171875 99.875 L 16.378906 99.875 C 16.238281 100.136719 16.101562 100.398438 15.964844 100.660156 L 357.363281 100.660156 C 357.300781 100.398438 357.238281 100.136719 357.171875 99.875 " fill-opacity="1" fill-rule="nonzero"/></g><g clip-path="url(#6cce7a8a0b)"><path fill="#393a3f" d="M 271.800781 259.492188 L 249.710938 259.558594 L 238.664062 259.597656 L 227.621094 259.707031 L 227.621094 260.0625 L 238.664062 260.171875 L 249.710938 260.207031 L 271.800781 260.273438 L 293.890625 260.191406 L 304.9375 260.148438 L 315.984375 260.035156 L 315.984375 259.734375 L 304.9375 259.621094 L 293.890625 259.574219 Z M 262.539062 85.582031 L 254.554688 85.582031 L 254.554688 86.367188 L 262.539062 86.367188 Z M 266.695312 83.746094 L 266.695312 82.960938 L 261.617188 82.960938 L 261.617188 83.746094 Z M 259.636719 82.960938 L 254.554688 82.960938 L 254.554688 83.746094 L 259.636719 83.746094 Z M 266.695312 80.34375 L 254.554688 80.34375 L 254.554688 81.128906 L 266.695312 81.128906 Z M 272.144531 25.65625 C 273.277344 25.65625 274.199219 24.734375 274.199219 23.601562 C 274.199219 22.46875 273.277344 21.546875 272.144531 21.546875 C 271.011719 21.546875 270.09375 22.46875 270.09375 23.601562 C 270.09375 24.734375 271.011719 25.65625 272.144531 25.65625 Z M 160.652344 25.65625 C 161.785156 25.65625 162.707031 24.734375 162.707031 23.601562 C 162.707031 22.46875 161.785156 21.546875 160.652344 21.546875 C 159.519531 21.546875 158.601562 22.46875 158.601562 23.601562 C 158.601562 24.734375 159.519531 25.65625 160.652344 25.65625 Z M 80.511719 87.285156 L 72.527344 87.285156 L 72.527344 88.070312 L 80.511719 88.070312 Z M 84.667969 85.449219 L 84.667969 84.664062 L 79.585938 84.664062 L 79.585938 85.449219 Z M 77.609375 84.664062 L 72.527344 84.664062 L 72.527344 85.449219 L 77.609375 85.449219 Z M 84.667969 82.046875 L 72.527344 82.046875 L 72.527344 82.832031 L 84.667969 82.832031 Z M 51.65625 25.65625 C 52.785156 25.65625 53.703125 24.734375 53.703125 23.601562 C 53.703125 22.46875 52.785156 21.546875 51.65625 21.546875 C 50.519531 21.546875 49.601562 22.46875 49.601562 23.601562 C 49.601562 24.734375 50.519531 25.65625 51.65625 25.65625 Z M 37.0625 144.984375 L 37.847656 144.984375 L 37.847656 144.148438 L 48.773438 144.148438 L 48.773438 144.984375 L 49.558594 144.984375 L 49.558594 144.148438 L 60.488281 144.148438 L 60.488281 144.984375 L 61.269531 144.984375 L 61.269531 144.148438 L 72.199219 144.148438 L 72.199219 144.984375 L 72.984375 144.984375 L 72.984375 144.148438 L 83.910156 144.148438 L 83.910156 144.984375 L 84.695312 144.984375 L 84.695312 144.148438 L 88.265625 144.148438 L 88.265625 143.363281 L 84.695312 143.363281 L 84.695312 142.523438 L 83.910156 142.523438 L 83.910156 143.363281 L 72.984375 143.363281 L 72.984375 142.523438 L 72.199219 142.523438 L 72.199219 143.363281 L 61.269531 143.363281 L 61.269531 142.523438 L 60.488281 142.523438 L 60.488281 143.363281 L 49.558594 143.363281 L 49.558594 142.523438 L 48.773438 142.523438 L 48.773438 143.363281 L 37.847656 143.363281 L 37.847656 142.523438 L 37.0625 142.523438 L 37.0625 143.363281 L 33.570312 143.363281 L 33.570312 144.148438 L 37.0625 144.148438 Z M 291.683594 114.839844 C 291.683594 114.40625 291.332031 114.054688 290.902344 114.054688 L 189.574219 114.054688 C 189.136719 114.054688 188.789062 114.40625 188.789062 114.839844 C 188.789062 115.273438 189.136719 115.625 189.574219 115.625 L 290.902344 115.625 C 291.332031 115.625 291.683594 115.273438 291.683594 114.839844 Z M 268.773438 226.542969 L 263.542969 226.542969 C 263.105469 226.542969 262.757812 226.898438 262.757812 227.328125 C 262.757812 227.765625 263.105469 228.113281 263.542969 228.113281 L 268.773438 228.113281 C 269.203125 228.113281 269.554688 227.765625 269.554688 227.328125 C 269.554688 226.898438 269.203125 226.542969 268.773438 226.542969 Z M 270.199219 222.199219 C 270.199219 221.765625 269.847656 221.414062 269.414062 221.414062 L 264.1875 221.414062 C 263.753906 221.414062 263.402344 221.765625 263.402344 222.199219 C 263.402344 222.632812 263.753906 222.984375 264.1875 222.984375 L 269.414062 222.984375 C 269.847656 222.984375 270.199219 222.632812 270.199219 222.199219 Z M 271.488281 211.933594 C 271.488281 211.5 271.136719 211.148438 270.703125 211.148438 L 265.472656 211.148438 C 265.039062 211.148438 264.6875 211.5 264.6875 211.933594 C 264.6875 212.371094 265.039062 212.71875 265.472656 212.71875 L 270.703125 212.71875 C 271.136719 212.71875 271.488281 212.371094 271.488281 211.933594 Z M 272.128906 206.804688 C 272.128906 206.371094 271.78125 206.019531 271.34375 206.019531 L 266.117188 206.019531 C 265.683594 206.019531 265.335938 206.371094 265.335938 206.804688 C 265.335938 207.238281 265.683594 207.589844 266.117188 207.589844 L 271.34375 207.589844 C 271.78125 207.589844 272.128906 207.238281 272.128906 206.804688 Z M 272.777344 201.675781 C 272.777344 201.238281 272.421875 200.890625 271.992188 200.890625 L 266.761719 200.890625 C 266.332031 200.890625 265.976562 201.238281 265.976562 201.675781 C 265.976562 202.105469 266.332031 202.460938 266.761719 202.460938 L 271.992188 202.460938 C 272.421875 202.460938 272.777344 202.105469 272.777344 201.675781 Z M 198.414062 198.640625 C 198.332031 199.28125 198.785156 199.804688 199.425781 199.804688 C 200.066406 199.804688 200.652344 199.28125 200.730469 198.640625 C 200.8125 198 200.359375 197.476562 199.71875 197.476562 C 199.078125 197.476562 198.496094 198 198.414062 198.640625 Z M 207.871094 126.355469 C 207.792969 126.996094 208.246094 127.515625 208.886719 127.515625 C 209.527344 127.515625 210.113281 126.996094 210.191406 126.355469 C 210.273438 125.714844 209.816406 125.191406 209.179688 125.191406 C 208.539062 125.191406 207.953125 125.714844 207.871094 126.355469 Z M 219.480469 153.949219 C 219.050781 153.949219 218.695312 154.300781 218.695312 154.734375 C 218.695312 155.167969 219.050781 155.519531 219.480469 155.519531 L 229.089844 155.519531 C 229.523438 155.519531 229.875 155.167969 229.875 154.734375 C 229.875 154.300781 229.523438 153.949219 229.089844 153.949219 Z M 275.714844 178.261719 C 275.714844 177.828125 275.363281 177.476562 274.929688 177.476562 L 269.699219 177.476562 C 269.269531 177.476562 268.914062 177.828125 268.914062 178.261719 C 268.914062 178.699219 269.269531 179.046875 269.699219 179.046875 L 274.929688 179.046875 C 275.363281 179.046875 275.714844 178.699219 275.714844 178.261719 Z M 276.359375 173.132812 C 276.359375 172.695312 276.003906 172.347656 275.574219 172.347656 L 270.34375 172.347656 C 269.910156 172.347656 269.558594 172.695312 269.558594 173.132812 C 269.558594 173.566406 269.910156 173.917969 270.34375 173.917969 L 275.574219 173.917969 C 276.003906 173.917969 276.359375 173.566406 276.359375 173.132812 Z M 277 168 C 277 167.566406 276.648438 167.214844 276.214844 167.214844 L 270.988281 167.214844 C 270.554688 167.214844 270.203125 167.566406 270.203125 168 C 270.203125 168.433594 270.554688 168.785156 270.988281 168.785156 L 276.214844 168.785156 C 276.648438 168.785156 277 168.433594 277 168 Z M 277.644531 162.871094 C 277.644531 162.433594 277.296875 162.082031 276.859375 162.082031 L 271.632812 162.082031 C 271.199219 162.082031 270.847656 162.433594 270.847656 162.871094 C 270.847656 163.300781 271.199219 163.65625 271.632812 163.65625 L 276.859375 163.65625 C 277.296875 163.65625 277.644531 163.300781 277.644531 162.871094 Z M 278.933594 152.605469 C 278.933594 152.171875 278.582031 151.820312 278.148438 151.820312 L 272.921875 151.820312 C 272.488281 151.820312 272.136719 152.171875 272.136719 152.605469 C 272.136719 153.039062 272.488281 153.390625 272.921875 153.390625 L 278.148438 153.390625 C 278.582031 153.390625 278.933594 153.039062 278.933594 152.605469 Z M 279.578125 147.472656 C 279.578125 147.042969 279.226562 146.6875 278.792969 146.6875 L 273.5625 146.6875 C 273.132812 146.6875 272.777344 147.042969 272.777344 147.472656 C 272.777344 147.90625 273.132812 148.257812 273.5625 148.257812 L 278.792969 148.257812 C 279.226562 148.257812 279.578125 147.90625 279.578125 147.472656 Z M 280.222656 142.34375 C 280.222656 141.910156 279.871094 141.558594 279.4375 141.558594 L 274.210938 141.558594 C 273.773438 141.558594 273.425781 141.910156 273.425781 142.34375 C 273.425781 142.777344 273.773438 143.128906 274.210938 143.128906 L 279.4375 143.128906 C 279.871094 143.128906 280.222656 142.777344 280.222656 142.34375 Z M 280.863281 137.210938 C 280.863281 136.777344 280.515625 136.425781 280.078125 136.425781 L 274.851562 136.425781 C 274.417969 136.425781 274.070312 136.777344 274.070312 137.210938 C 274.070312 137.644531 274.417969 137.996094 274.851562 137.996094 L 280.078125 137.996094 C 280.515625 137.996094 280.863281 137.644531 280.863281 137.210938 Z M 281.507812 132.078125 C 281.507812 131.644531 281.160156 131.292969 280.722656 131.292969 L 275.496094 131.292969 C 275.066406 131.292969 274.710938 131.644531 274.710938 132.078125 C 274.710938 132.515625 275.066406 132.863281 275.496094 132.863281 L 280.722656 132.863281 C 281.160156 132.863281 281.507812 132.515625 281.507812 132.078125 Z M 161.339844 135.761719 L 165.027344 135.578125 C 165.207031 133.425781 165.832031 131.441406 166.847656 130.9375 C 165.761719 130.824219 164.710938 130.855469 163.90625 131.207031 C 163.855469 128.480469 162.777344 127.03125 162.105469 125.320312 C 162.09375 127.277344 162.625 126.675781 162.421875 129.296875 C 162.308594 130.753906 162.601562 132.242188 162.261719 133.660156 C 162.082031 134.414062 161.734375 135.097656 161.339844 135.761719 Z M 165.816406 135.539062 L 168.886719 135.386719 C 168.65625 133.035156 167.90625 131.597656 167.359375 131.597656 C 166.800781 131.597656 166.03125 133.101562 165.816406 135.539062 Z M 168.945312 136.167969 L 165.761719 136.328125 C 165.757812 136.511719 165.753906 136.699219 165.753906 136.890625 C 165.753906 140.121094 166.703125 142.183594 167.359375 142.183594 C 168.011719 142.183594 168.964844 140.121094 168.964844 136.890625 C 168.964844 136.644531 168.957031 136.402344 168.945312 136.167969 Z M 94.992188 167.738281 C 94.140625 162.125 95.777344 156.179688 99.382812 151.796875 C 100.703125 150.1875 102.335938 148.664062 102.742188 146.625 C 103.160156 144.519531 102.164062 142.425781 101.707031 140.332031 C 100.839844 136.332031 102.074219 131.929688 104.902344 128.96875 C 107.066406 126.699219 110.066406 125.257812 111.894531 122.703125 C 113.429688 120.566406 113.96875 117.898438 115.019531 115.484375 C 117.96875 108.722656 125.429688 104.222656 132.777344 104.769531 C 134.820312 102.222656 138.773438 101.027344 141.984375 101.597656 C 145.195312 102.164062 148.050781 103.988281 150.546875 106.089844 C 158.402344 104.882812 168.28125 112.390625 171.027344 131.871094 C 170.289062 131.648438 169.257812 131.355469 168.175781 131.140625 C 169.199219 132.011719 169.75 134.515625 169.75 136.890625 C 169.75 139.835938 168.910156 142.96875 167.359375 142.96875 C 165.804688 142.96875 164.96875 139.835938 164.96875 136.890625 C 164.96875 136.71875 164.972656 136.542969 164.980469 136.367188 L 163.203125 136.457031 C 163.542969 136.636719 163.796875 137.308594 163.796875 138.117188 C 163.796875 139.0625 163.445312 139.828125 163.019531 139.828125 C 162.585938 139.828125 162.238281 139.0625 162.238281 138.117188 C 162.238281 137.332031 162.480469 136.679688 162.804688 136.476562 L 160.835938 136.574219 C 160.371094 137.304688 159.898438 138.039062 159.582031 138.84375 C 158.125 142.527344 160.1875 146.707031 159.609375 150.628906 C 159.242188 153.089844 157.867188 155.277344 157.125 157.652344 C 156.070312 161.019531 156.8125 165.679688 158.359375 168.851562 L 147.476562 168.851562 C 146.796875 166.285156 145.917969 163.957031 145.820312 161.300781 C 145.097656 164.078125 144.78125 166.609375 144.539062 169.472656 C 143.199219 165.851562 142.3125 162.328125 142.226562 158.472656 C 141.84375 161.558594 141.710938 164.648438 141.328125 167.738281 Z M 168.539062 273.738281 C 169.742188 275.253906 171.0625 276.6875 172.507812 277.988281 C 173.945312 279.296875 175.542969 280.457031 177.304688 281.347656 C 178.1875 281.773438 179.125 282.117188 180.085938 282.359375 C 181.070312 282.574219 182.015625 282.679688 182.96875 282.8125 C 184.878906 283.054688 186.792969 283.292969 188.707031 283.464844 C 192.539062 283.832031 196.382812 284.070312 200.230469 284.140625 C 200.328125 284.140625 200.410156 284.066406 200.414062 283.972656 C 200.417969 283.875 200.34375 283.792969 200.246094 283.785156 C 198.328125 283.679688 196.414062 283.523438 194.507812 283.347656 C 192.59375 283.179688 190.6875 282.992188 188.78125 282.777344 C 186.875 282.550781 184.96875 282.332031 183.070312 282.066406 C 182.121094 281.929688 181.15625 281.8125 180.265625 281.609375 C 179.367188 281.378906 178.488281 281.050781 177.648438 280.640625 C 174.269531 278.964844 171.492188 276.226562 169.050781 273.316406 C 167.824219 271.855469 166.6875 270.3125 165.621094 268.722656 C 164.542969 267.136719 163.527344 265.507812 162.617188 263.824219 L 162.613281 263.820312 C 162.574219 263.746094 162.488281 263.71875 162.414062 263.757812 C 162.339844 263.792969 162.308594 263.882812 162.347656 263.957031 C 164.0625 267.421875 166.125 270.707031 168.539062 273.738281 Z M 142.289062 226.261719 C 141.855469 226 141.453125 225.699219 141.066406 225.371094 C 140.683594 225.035156 140.332031 224.65625 139.980469 224.261719 C 139.9375 224.214844 139.867188 224.199219 139.808594 224.222656 C 139.730469 224.253906 139.691406 224.339844 139.722656 224.417969 C 140.128906 225.449219 140.925781 226.328125 141.871094 226.929688 C 142.351562 227.226562 142.855469 227.46875 143.382812 227.632812 C 143.828125 227.773438 144.277344 227.871094 144.734375 227.929688 C 146.246094 231.375 147.8125 234.792969 149.390625 238.210938 C 151.191406 242.007812 153.007812 245.800781 154.867188 249.566406 C 156.734375 253.335938 158.636719 257.082031 160.628906 260.789062 C 160.671875 260.875 160.777344 260.90625 160.859375 260.863281 C 160.949219 260.820312 160.988281 260.714844 160.945312 260.625 C 160.015625 258.742188 159.113281 256.84375 158.210938 254.949219 L 155.492188 249.261719 L 150.097656 237.875 C 148.296875 234.082031 146.539062 230.265625 144.800781 226.445312 C 143.929688 224.535156 143.082031 222.613281 142.257812 220.6875 C 141.445312 218.757812 140.605469 216.824219 139.996094 214.832031 L 139.992188 214.820312 C 139.96875 214.746094 139.886719 214.703125 139.808594 214.722656 C 139.726562 214.746094 139.683594 214.828125 139.707031 214.90625 C 140.867188 218.976562 142.550781 222.84375 144.195312 226.714844 C 144.289062 226.929688 144.386719 227.144531 144.484375 227.355469 C 144.199219 227.234375 143.910156 227.113281 143.636719 226.984375 C 143.171875 226.761719 142.714844 226.53125 142.289062 226.261719 Z M 162.875 151.683594 C 163.171875 151.875 163.503906 151.992188 163.84375 152.074219 C 164.1875 152.144531 164.535156 152.175781 164.878906 152.144531 C 165.050781 152.132812 165.214844 152.097656 165.382812 152.074219 C 165.546875 152.023438 165.710938 151.980469 165.867188 151.917969 C 165.917969 151.894531 165.953125 151.847656 165.960938 151.796875 C 165.972656 151.710938 165.917969 151.632812 165.832031 151.617188 C 165.183594 151.515625 164.59375 151.449219 164.019531 151.3125 C 163.734375 151.246094 163.460938 151.15625 163.179688 151.058594 C 162.90625 150.964844 162.628906 150.832031 162.371094 150.707031 L 162.335938 150.6875 C 162.285156 150.664062 162.222656 150.664062 162.167969 150.699219 C 162.082031 150.746094 162.054688 150.859375 162.105469 150.941406 C 162.300781 151.273438 162.574219 151.492188 162.875 151.683594 Z M 325.152344 285.003906 L 311.570312 264.554688 L 311.570312 264.375 L 301.75 264.265625 L 291.925781 264.234375 L 272.28125 264.164062 L 252.632812 264.25 L 242.8125 264.289062 L 232.984375 264.40625 L 232.984375 264.707031 L 233.214844 264.707031 L 233.992188 265.226562 L 236.589844 269.707031 L 232.011719 269.050781 C 232.039062 269.039062 232.070312 269.03125 232.097656 269.015625 C 232.273438 268.925781 232.425781 268.792969 232.558594 268.648438 C 232.683594 268.496094 232.796875 268.328125 232.867188 268.140625 C 232.933594 267.953125 232.980469 267.757812 232.957031 267.550781 C 232.953125 267.511719 232.9375 267.472656 232.910156 267.441406 C 232.839844 267.359375 232.714844 267.351562 232.632812 267.421875 L 232.625 267.425781 C 232.480469 267.550781 232.375 267.671875 232.265625 267.789062 C 232.15625 267.902344 232.0625 268.023438 231.964844 268.136719 C 231.871094 268.257812 231.769531 268.371094 231.675781 268.503906 C 231.578125 268.632812 231.476562 268.761719 231.378906 268.921875 L 231.375 268.929688 C 231.375 268.9375 231.375 268.9375 231.371094 268.945312 L 231.324219 268.875 L 226.808594 267.917969 C 226.835938 267.808594 226.867188 267.699219 226.890625 267.59375 C 226.96875 267.214844 226.988281 266.832031 226.992188 266.449219 C 226.984375 266.0625 226.953125 265.679688 226.867188 265.304688 C 226.789062 264.929688 226.675781 264.558594 226.5 264.214844 C 226.46875 264.15625 226.40625 264.117188 226.339844 264.117188 C 226.238281 264.113281 226.152344 264.195312 226.152344 264.296875 C 226.148438 264.671875 226.167969 265.03125 226.179688 265.390625 L 226.207031 266.460938 L 226.230469 267.53125 C 226.234375 267.761719 226.238281 267.996094 226.242188 268.230469 L 223.992188 267.910156 C 216.152344 266.734375 208.3125 265.539062 200.542969 264.003906 C 198.609375 263.617188 196.664062 263.226562 194.792969 262.675781 C 194.332031 262.53125 193.859375 262.375 193.46875 262.175781 C 193.257812 262.058594 193.21875 262.03125 193.0625 261.78125 L 192.664062 261.179688 C 192.144531 260.339844 191.625 259.496094 191.121094 258.644531 C 189.09375 255.238281 187.109375 251.796875 185.125 248.363281 L 178.109375 236.160156 L 261.894531 236.160156 L 266.507812 253.832031 L 299.75 253.832031 L 295.140625 236.160156 L 345.625 236.160156 C 350.550781 236.160156 354.6875 232.449219 355.226562 227.550781 L 367.375 117.820312 C 368.007812 112.089844 363.53125 107.078125 357.769531 107.078125 L 187.660156 107.078125 C 182.734375 107.078125 178.601562 110.785156 178.058594 115.6875 L 167.417969 211.804688 C 168.421875 214.746094 169.25 217.617188 169.78125 220.25 L 181.316406 116.050781 C 181.675781 112.808594 184.402344 110.363281 187.660156 110.363281 L 357.769531 110.363281 C 359.609375 110.363281 361.300781 111.121094 362.527344 112.492188 C 363.753906 113.863281 364.316406 115.628906 364.117188 117.457031 L 351.96875 227.1875 C 351.609375 230.429688 348.878906 232.875 345.625 232.875 L 268.773438 232.875 C 268.855469 232.753906 268.910156 232.617188 268.910156 232.460938 C 268.910156 232.027344 268.5625 231.675781 268.125 231.675781 L 262.898438 231.675781 C 262.464844 231.675781 262.113281 232.027344 262.113281 232.460938 C 262.113281 232.617188 262.167969 232.753906 262.25 232.875 L 176.21875 232.875 L 173.25 227.714844 C 173.210938 227.648438 173.121094 227.621094 173.046875 227.660156 C 172.976562 227.699219 172.949219 227.792969 172.988281 227.867188 L 175.757812 232.875 L 175.667969 232.875 C 176.234375 233.992188 176.796875 235.085938 177.355469 236.160156 L 177.566406 236.160156 L 178.742188 238.292969 L 184.59375 248.667969 C 186.554688 252.121094 188.511719 255.570312 190.519531 259 C 191.019531 259.859375 191.535156 260.710938 192.054688 261.5625 L 192.472656 262.203125 C 192.5625 262.316406 192.566406 262.390625 192.734375 262.546875 C 192.875 262.691406 192.996094 262.746094 193.121094 262.816406 C 193.613281 263.074219 194.089844 263.226562 194.574219 263.382812 C 196.5 263.964844 198.445312 264.371094 200.394531 264.773438 C 208.199219 266.277344 216.050781 267.417969 223.898438 268.550781 L 235.6875 270.167969 L 247.496094 271.621094 C 247.589844 271.628906 247.683594 271.5625 247.691406 271.46875 C 247.707031 271.367188 247.636719 271.28125 247.539062 271.269531 L 243.179688 270.644531 L 247.035156 264.835938 L 252.632812 264.863281 L 272.28125 264.945312 L 291.925781 264.878906 L 301.75 264.84375 L 306.496094 264.789062 L 319.921875 285.003906 L 314.949219 285.003906 L 307.824219 276.929688 L 304.535156 279.089844 L 310.625 285.003906 L 290.890625 285.003906 L 308.835938 273.597656 L 283.554688 273.597656 L 287.355469 280.59375 C 287.648438 281.132812 287.425781 281.804688 286.871094 282.058594 C 285.84375 281.984375 284.683594 281.5 283.699219 280.816406 C 283.699219 280.792969 283.707031 280.773438 283.699219 280.75 C 283.273438 279.753906 283.265625 278.652344 283.132812 277.519531 C 283.070312 276.949219 282.949219 276.367188 282.722656 275.800781 C 282.5 275.238281 282.179688 274.726562 281.8125 274.261719 C 281.046875 273.355469 280.128906 272.640625 279.199219 272.011719 C 278.273438 271.371094 277.34375 270.773438 276.511719 270.042969 C 276.457031 269.996094 276.375 269.992188 276.316406 270.039062 C 276.253906 270.09375 276.246094 270.183594 276.296875 270.25 C 277.019531 271.148438 277.933594 271.851562 278.808594 272.542969 C 279.679688 273.234375 280.546875 273.914062 281.203125 274.757812 C 281.539062 275.167969 281.828125 275.609375 282.027344 276.085938 C 282.238281 276.558594 282.335938 277.085938 282.445312 277.621094 C 282.605469 278.496094 282.707031 279.460938 283.089844 280.34375 C 282.605469 279.929688 282.191406 279.476562 281.90625 279 L 279.40625 274.816406 L 274.964844 273.742188 C 274.953125 273.726562 274.949219 273.714844 274.9375 273.707031 C 274.898438 273.660156 274.835938 273.636719 274.773438 273.65625 C 274.757812 273.664062 274.753906 273.679688 274.738281 273.683594 L 274.683594 273.671875 L 268.433594 278.515625 C 268.4375 278.476562 268.445312 278.445312 268.445312 278.410156 C 268.484375 278.082031 268.460938 277.753906 268.414062 277.429688 C 268.359375 277.101562 268.273438 276.785156 268.136719 276.484375 C 268.003906 276.1875 267.839844 275.898438 267.617188 275.652344 C 267.574219 275.609375 267.507812 275.585938 267.449219 275.597656 C 267.347656 275.613281 267.28125 275.710938 267.296875 275.8125 C 267.347656 276.121094 267.421875 276.410156 267.476562 276.699219 C 267.527344 276.988281 267.59375 277.273438 267.640625 277.558594 C 267.699219 277.847656 267.738281 278.132812 267.785156 278.425781 C 267.8125 278.597656 267.839844 278.777344 267.867188 278.953125 L 262.902344 282.800781 C 261.488281 283.894531 259.855469 284.628906 258.136719 285.003906 L 253.308594 285.003906 L 247.195312 284.15625 C 247.570312 283.824219 247.90625 283.433594 248.140625 282.972656 C 248.445312 282.410156 248.589844 281.75 248.492188 281.128906 C 248.480469 281.054688 248.421875 280.992188 248.339844 280.976562 C 248.242188 280.964844 248.152344 281.035156 248.136719 281.132812 C 248.054688 281.683594 247.859375 282.183594 247.558594 282.621094 C 247.429688 282.804688 247.28125 282.972656 247.128906 283.136719 C 247.117188 282.777344 247.070312 282.421875 246.988281 282.070312 C 246.824219 281.394531 246.542969 280.75 246.121094 280.21875 C 246.078125 280.164062 246.007812 280.144531 245.949219 280.167969 C 245.867188 280.199219 245.832031 280.285156 245.859375 280.363281 C 246.085938 280.96875 246.25 281.574219 246.320312 282.191406 C 246.390625 282.808594 246.390625 283.421875 246.292969 284.023438 C 246.289062 284.046875 246.296875 284.066406 246.296875 284.085938 L 204.167969 283.78125 L 202.324219 285.003906 L 163.730469 285.003906 C 163.828125 285.265625 163.929688 285.527344 164.027344 285.789062 L 367.4375 285.789062 L 367.4375 285.003906 Z M 47.375 285.003906 L 47.375 285.789062 L 135.074219 285.789062 C 140.390625 285.789062 141.917969 285.003906 141.917969 285.003906 C 142.609375 284.816406 143.273438 284.566406 143.902344 284.257812 C 148.402344 282.050781 151.113281 276.917969 149.828125 271.628906 L 134.820312 209.792969 C 133.605469 204.796875 129.144531 201.285156 124.015625 201.285156 L 40.164062 201.285156 C 32.964844 201.285156 27.660156 208.039062 29.359375 215.050781 L 44.371094 276.886719 C 45.34375 280.90625 48.425781 283.957031 52.261719 285.003906 Z M 169.128906 297.265625 C 169.128906 297.265625 169.113281 297.410156 169.070312 297.660156 C 168.523438 300.9375 163.53125 324.464844 132.539062 324.464844 C 121.195312 324.464844 112.996094 322.585938 108.429688 321.171875 C 110.050781 330.464844 118.140625 337.527344 127.878906 337.527344 L 187.492188 337.527344 C 202.25 337.527344 216.652344 331.367188 216.652344 331.367188 L 212.023438 358.84375 L 242.414062 358.84375 C 242.414062 358.84375 245.933594 331.367188 247.449219 312.933594 C 248.335938 302.140625 240.398438 298.679688 233.664062 297.660156 L 288.34375 297.660156 L 284.792969 328.269531 L 296.027344 330.136719 L 299.796875 297.660156 L 340.261719 297.660156 L 344.96875 338.257812 L 356.644531 340.191406 L 351.71875 297.660156 L 367.4375 297.660156 L 367.4375 296.875 L 168.929688 296.875 C 169.054688 297.125 169.128906 297.265625 169.128906 297.265625 Z M 101.238281 296.875 L 47.375 296.875 L 47.375 297.660156 L 73.285156 297.660156 C 73.261719 297.777344 73.273438 297.898438 73.242188 298.015625 L 73.136719 298.808594 C 73.058594 299.335938 73.03125 299.867188 72.976562 300.398438 L 72.886719 301.996094 L 72.847656 302.796875 L 72.824219 303.199219 C 72.832031 303.332031 72.734375 303.457031 72.988281 303.617188 C 73.277344 303.515625 73.207031 303.375 73.25 303.246094 L 73.460938 302.0625 L 73.742188 300.488281 C 73.8125 299.957031 73.90625 299.433594 73.953125 298.902344 L 74.03125 298.109375 C 74.023438 297.957031 74.085938 297.8125 74.058594 297.660156 L 101.25 297.660156 C 101.242188 297.398438 101.238281 297.136719 101.238281 296.875 Z M 234.472656 126.351562 C 234.472656 125.921875 234.117188 125.566406 233.6875 125.566406 L 222.007812 125.566406 C 221.578125 125.566406 221.222656 125.921875 221.222656 126.351562 C 221.222656 126.789062 221.578125 127.136719 222.007812 127.136719 L 233.6875 127.136719 C 234.117188 127.136719 234.472656 126.789062 234.472656 126.351562 Z M 203.480469 126.355469 C 203.398438 126.996094 203.851562 127.515625 204.492188 127.515625 C 205.132812 127.515625 205.71875 126.996094 205.796875 126.355469 C 205.882812 125.714844 205.429688 125.191406 204.785156 125.191406 C 204.148438 125.191406 203.5625 125.714844 203.480469 126.355469 Z M 200.101562 127.515625 C 199.464844 127.515625 199.007812 126.996094 199.089844 126.355469 C 199.167969 125.714844 199.753906 125.191406 200.394531 125.191406 C 201.035156 125.191406 201.488281 125.714844 201.410156 126.355469 C 201.328125 126.996094 200.742188 127.515625 200.101562 127.515625 " fill-opacity="1" fill-rule="nonzero"/></g><g clip-path="url(#92a535ca5f)"><path fill="#777b85" d="M 309.9375 253.832031 L 303.621094 253.832031 L 299.011719 236.160156 L 295.140625 236.160156 L 299.75 253.832031 L 233.664062 253.832031 C 230.328125 253.832031 227.621094 256.542969 227.621094 259.886719 L 315.984375 259.886719 C 315.984375 256.542969 313.277344 253.832031 309.9375 253.832031 Z M 96.207031 253.417969 L 83.1875 253.417969 C 82.351562 253.417969 81.648438 254.042969 81.550781 254.871094 L 71.011719 346.351562 C 70.898438 347.324219 71.664062 348.183594 72.644531 348.183594 L 85.667969 348.183594 C 86.5 348.183594 87.203125 347.558594 87.300781 346.726562 L 97.839844 255.253906 C 97.953125 254.273438 97.191406 253.417969 96.207031 253.417969 Z M 290.300781 285.378906 L 295.585938 285.378906 L 307.617188 277.460938 L 314.605469 285.378906 L 318.511719 285.378906 L 308.835938 273.597656 Z M 362.949219 107.078125 L 357.769531 107.078125 C 363.53125 107.078125 368.007812 112.089844 367.375 117.820312 L 355.226562 227.550781 C 354.6875 232.449219 350.550781 236.160156 345.625 236.160156 L 350.800781 236.160156 C 355.722656 236.160156 359.863281 232.449219 360.40625 227.550781 L 372.554688 117.820312 C 373.1875 112.089844 368.703125 107.078125 362.949219 107.078125 Z M 234.472656 126.351562 C 234.472656 125.921875 234.117188 125.566406 233.6875 125.566406 L 222.007812 125.566406 C 221.578125 125.566406 221.222656 125.921875 221.222656 126.351562 C 221.222656 126.789062 221.578125 127.136719 222.007812 127.136719 L 233.6875 127.136719 C 234.117188 127.136719 234.472656 126.789062 234.472656 126.351562 Z M 204.785156 125.191406 C 204.148438 125.191406 203.5625 125.714844 203.480469 126.355469 C 203.398438 126.996094 203.851562 127.515625 204.492188 127.515625 C 205.132812 127.515625 205.71875 126.996094 205.796875 126.355469 C 205.882812 125.714844 205.429688 125.191406 204.785156 125.191406 Z M 200.394531 125.191406 C 199.753906 125.191406 199.167969 125.714844 199.089844 126.355469 C 199.007812 126.996094 199.464844 127.515625 200.101562 127.515625 C 200.742188 127.515625 201.328125 126.996094 201.410156 126.355469 C 201.488281 125.714844 201.035156 125.191406 200.394531 125.191406 Z M 210.191406 126.355469 C 210.113281 126.996094 209.527344 127.515625 208.886719 127.515625 C 208.246094 127.515625 207.792969 126.996094 207.871094 126.355469 C 207.953125 125.714844 208.539062 125.191406 209.179688 125.191406 C 209.816406 125.191406 210.273438 125.714844 210.191406 126.355469 " fill-opacity="1" fill-rule="nonzero"/></g></svg>