<svg xmlns="http://www.w3.org/2000/svg" xmlns:xlink="http://www.w3.org/1999/xlink" width="500" zoomAndPan="magnify" viewBox="0 0 375 374.999991" height="500" preserveAspectRatio="xMidYMid meet" version="1.0"><defs><clipPath id="11a89c2900"><path d="M 112.5 177 L 262.5 177 L 262.5 198 L 112.5 198 Z M 112.5 177 " clip-rule="nonzero"/></clipPath></defs><rect x="-37.5" width="450" fill="#ffffff" y="-37.499999" height="449.999989" fill-opacity="1"/><rect x="-37.5" width="450" fill="#ffffff" y="-37.499999" height="449.999989" fill-opacity="1"/><g clip-path="url(#11a89c2900)"><path fill="#b4d8c5" d="M 253.128906 193.53125 C 250.578125 191.90625 246.5 190.070312 243.421875 187.171875 C 238.332031 182.378906 233.339844 182.621094 229.753906 188.644531 C 224.144531 198.078125 214.070312 198.917969 206.601562 190.570312 C 199.828125 182.996094 197.4375 182.992188 190.722656 190.539062 C 182.726562 199.53125 174.714844 199.828125 166.359375 190.886719 C 161.859375 186.074219 157.988281 186.808594 153.679688 190.710938 C 144.601562 198.921875 139.332031 198.960938 130.679688 190.953125 C 126.308594 186.910156 123.488281 187.441406 118.285156 192.777344 C 116.953125 194.140625 114.863281 194.761719 113.125 195.722656 C 113.238281 193.332031 112.5 190.398438 113.613281 188.640625 C 119.019531 180.117188 128.351562 179.195312 135.5 186.445312 C 139.652344 190.660156 142.652344 191.050781 147.101562 186.460938 C 155.382812 177.925781 163.945312 178.402344 171.933594 186.921875 C 176.632812 191.9375 178.824219 192.074219 183.320312 186.625 C 187.1875 181.945312 191.148438 178.203125 197.792969 178.28125 C 203.332031 178.34375 207.625 179.792969 211.019531 184.589844 C 215.894531 191.484375 219.09375 191.203125 223.351562 184.261719 C 228.464844 175.925781 241.648438 175.179688 248.332031 182.414062 C 249.941406 184.15625 254.1875 185.722656 255.699219 184.820312 C 258.78125 182.980469 261.195312 182.824219 262.027344 185.890625 C 262.5 187.628906 260.28125 190.355469 258.789062 192.261719 C 258.160156 193.0625 256.285156 192.886719 253.128906 193.53125 Z M 253.128906 193.53125 " fill-opacity="1" fill-rule="nonzero"/></g></svg>