<svg xmlns="http://www.w3.org/2000/svg" xmlns:xlink="http://www.w3.org/1999/xlink" width="500" zoomAndPan="magnify" viewBox="0 0 375 374.999991" height="500" preserveAspectRatio="xMidYMid meet" version="1.0"><defs><clipPath id="82c17b6bc3"><path d="M 129.265625 88.886719 L 161 88.886719 L 161 128 L 129.265625 128 Z M 129.265625 88.886719 " clip-rule="nonzero"/></clipPath><clipPath id="5d0860e236"><path d="M 186 205 L 234.265625 205 L 234.265625 238.886719 L 186 238.886719 Z M 186 205 " clip-rule="nonzero"/></clipPath></defs><rect x="-37.5" width="450" fill="#ffffff" y="-37.499999" height="449.999989" fill-opacity="1"/><rect x="-37.5" width="450" fill="#ffffff" y="-37.499999" height="449.999989" fill-opacity="1"/><g clip-path="url(#82c17b6bc3)"><path fill="#000000" d="M 129.792969 89.152344 C 130.199219 88.976562 130.648438 88.9375 131.082031 88.910156 C 131.660156 88.898438 132.242188 88.886719 132.820312 88.933594 C 134.042969 89.085938 135.230469 89.421875 136.40625 89.769531 C 139.710938 90.789062 142.898438 92.136719 146.058594 93.527344 C 149.949219 95.273438 153.785156 97.148438 157.554688 99.140625 C 158.492188 99.640625 159.441406 100.125 160.347656 100.679688 C 157.136719 99.21875 153.902344 97.804688 150.660156 96.417969 C 147.984375 95.277344 145.296875 94.164062 142.582031 93.125 C 139.90625 92.117188 137.210938 91.121094 134.421875 90.457031 C 133.382812 90.230469 132.324219 90.027344 131.253906 90.109375 C 132.945312 91.035156 134.664062 91.933594 136.167969 93.152344 C 138.21875 94.773438 139.945312 96.921875 140.660156 99.472656 C 142.980469 108.035156 145.226562 116.613281 147.304688 125.238281 C 147.515625 126.113281 147.730469 126.988281 147.914062 127.871094 C 145.300781 119.722656 142.859375 111.519531 140.496094 103.296875 C 140.144531 102.089844 139.804688 100.875 139.445312 99.671875 C 138.792969 97.550781 137.351562 95.757812 135.652344 94.375 C 134.371094 93.324219 132.945312 92.460938 131.488281 91.675781 C 130.933594 91.371094 130.359375 91.089844 129.835938 90.726562 C 129.554688 90.53125 129.28125 90.246094 129.289062 89.882812 C 129.28125 89.5625 129.511719 89.28125 129.792969 89.152344 Z M 129.792969 89.152344 " fill-opacity="1" fill-rule="nonzero"/></g><path fill="#000000" d="M 150.480469 98.253906 C 150.402344 98.195312 150.394531 98.125 150.460938 98.035156 C 155.8125 101.5625 161.019531 105.316406 166.054688 109.285156 C 168.292969 111.058594 170.480469 112.898438 172.609375 114.804688 C 174.804688 116.785156 176.933594 118.851562 178.867188 121.089844 C 179.796875 122.179688 180.679688 123.304688 181.453125 124.511719 C 182.132812 125.613281 182.792969 126.734375 183.523438 127.804688 C 185.765625 131.132812 188.347656 134.207031 190.6875 137.460938 C 192.472656 139.933594 194.101562 142.523438 195.441406 145.261719 C 197.859375 150.171875 199.21875 155.617188 199.304688 161.097656 C 199.265625 161.097656 199.1875 161.105469 199.152344 161.105469 C 198.636719 157.597656 197.808594 154.125 196.519531 150.816406 C 195.351562 147.78125 193.8125 144.894531 192.042969 142.171875 C 188.820312 137.183594 184.957031 132.644531 181.863281 127.570312 C 181.304688 126.675781 180.8125 125.738281 180.253906 124.839844 C 178.601562 122.269531 176.535156 120 174.40625 117.824219 C 172.1875 115.59375 169.855469 113.476562 167.46875 111.425781 C 162.027344 106.757812 156.324219 102.398438 150.480469 98.253906 Z M 150.480469 98.253906 " fill-opacity="1" fill-rule="nonzero"/><path fill="#000000" d="M 165.644531 122.796875 C 165.871094 122.625 166.109375 122.464844 166.34375 122.300781 C 172.003906 130.507812 177.550781 138.792969 182.9375 147.183594 C 186.207031 152.289062 189.421875 157.433594 192.46875 162.675781 C 193.996094 165.316406 195.480469 167.976562 196.84375 170.703125 C 198.335938 173.746094 199.6875 176.851562 200.984375 179.980469 C 203.433594 185.898438 205.671875 191.902344 207.933594 197.894531 C 208.046875 198.179688 207.964844 198.527344 208.167969 198.78125 C 208.453125 199.097656 208.527344 199.527344 208.695312 199.90625 C 209.199219 201.246094 209.710938 202.578125 210.234375 203.910156 C 211.292969 203.886719 212.355469 203.859375 213.40625 203.742188 C 212.691406 202.183594 212.019531 200.601562 211.296875 199.046875 C 211.164062 198.804688 211.210938 198.507812 211.078125 198.265625 C 210.996094 198.085938 210.816406 197.976562 210.730469 197.800781 C 208.566406 193.070312 206.34375 188.363281 204.101562 183.667969 C 203.566406 182.550781 203.046875 181.429688 202.445312 180.347656 C 196.550781 169.363281 190.652344 158.375 184.765625 147.386719 C 185.015625 147.257812 185.261719 147.117188 185.511719 146.992188 C 191.609375 158.34375 197.695312 169.703125 203.789062 181.058594 C 205.886719 185.398438 207.945312 189.757812 209.976562 194.128906 C 210.625 195.503906 211.238281 196.894531 211.890625 198.265625 C 213.957031 198.351562 216.015625 198.574219 218.050781 198.945312 C 219.371094 199.210938 220.699219 199.515625 221.925781 200.09375 C 222.417969 200.335938 222.90625 200.636719 223.1875 201.132812 C 222.730469 200.480469 221.980469 200.160156 221.261719 199.894531 C 219.855469 199.402344 218.378906 199.152344 216.910156 198.949219 C 215.289062 198.753906 213.65625 198.617188 212.019531 198.59375 C 212.800781 200.277344 213.550781 201.976562 214.289062 203.679688 C 216.230469 203.488281 218.171875 203.207031 220.054688 202.667969 C 220.707031 202.464844 221.367188 202.25 221.957031 201.894531 C 222.167969 201.753906 222.421875 201.609375 222.496094 201.347656 C 222.722656 201.367188 222.945312 201.390625 223.167969 201.425781 C 223.167969 201.292969 223.167969 201.160156 223.179688 201.027344 C 223.183594 201.160156 223.1875 201.292969 223.191406 201.425781 C 223.449219 201.445312 223.707031 201.46875 223.960938 201.507812 C 223.921875 201.992188 223.652344 202.429688 223.289062 202.738281 C 222.683594 203.25 221.933594 203.539062 221.191406 203.789062 C 219.125 204.4375 216.960938 204.703125 214.8125 204.882812 C 215.386719 206.320312 216.035156 207.734375 216.4375 209.230469 C 216.601562 210.167969 216.722656 211.117188 216.753906 212.070312 C 216.726562 212.59375 216.699219 213.191406 216.289062 213.574219 C 215.910156 213.9375 215.324219 213.886719 214.867188 213.714844 C 214.332031 213.507812 213.773438 213.253906 213.417969 212.78125 C 212.925781 212.148438 212.558594 211.429688 212.199219 210.714844 C 211.304688 208.871094 210.523438 206.972656 209.78125 205.0625 C 206.226562 204.96875 202.640625 204.742188 199.191406 203.820312 C 198.351562 203.582031 197.511719 203.300781 196.753906 202.851562 C 196.332031 202.585938 195.894531 202.246094 195.75 201.746094 C 195.609375 201.28125 195.832031 200.789062 196.175781 200.480469 C 196.746094 199.957031 197.488281 199.675781 198.210938 199.433594 C 200.070312 198.839844 202.015625 198.585938 203.953125 198.390625 C 205.015625 198.316406 206.078125 198.222656 207.144531 198.210938 C 204.695312 191.730469 202.285156 185.238281 199.59375 178.855469 C 198.398438 176.039062 197.164062 173.234375 195.789062 170.5 C 194.332031 167.636719 192.746094 164.835938 191.125 162.0625 C 187.714844 156.261719 184.121094 150.574219 180.46875 144.921875 C 175.632812 137.476562 170.699219 130.09375 165.644531 122.796875 M 202.535156 199.117188 C 201.035156 199.359375 199.535156 199.648438 198.113281 200.191406 C 197.558594 200.417969 196.976562 200.660156 196.578125 201.128906 C 196.433594 201.292969 196.421875 201.542969 196.574219 201.707031 C 196.859375 202.042969 197.269531 202.246094 197.664062 202.421875 C 198.566406 202.8125 199.527344 203.035156 200.484375 203.234375 C 202.261719 203.566406 204.070312 203.773438 205.878906 203.839844 L 205.929688 203.871094 C 207.0625 203.894531 208.195312 203.953125 209.324219 203.921875 C 208.640625 202.171875 207.976562 200.414062 207.308594 198.65625 C 205.710938 198.714844 204.117188 198.886719 202.535156 199.117188 M 210.6875 205.054688 C 211.550781 207.1875 212.390625 209.339844 213.496094 211.359375 C 213.816406 211.867188 214.105469 212.472656 214.695312 212.714844 C 215.011719 212.847656 215.375 213.09375 215.726562 212.945312 C 215.960938 212.539062 215.898438 212.039062 215.890625 211.585938 C 215.828125 211.015625 215.773438 210.441406 215.6875 209.875 C 215.632812 209.324219 215.429688 208.804688 215.25 208.289062 C 214.878906 207.257812 214.457031 206.25 214.035156 205.242188 C 213.980469 205.136719 213.960938 205.007812 213.867188 204.941406 C 212.808594 205.03125 211.746094 205.035156 210.6875 205.054688 Z M 210.6875 205.054688 " fill-opacity="1" fill-rule="nonzero"/><path fill="#000000" d="M 148.285156 127.4375 C 148.449219 127.4375 148.613281 127.433594 148.773438 127.46875 C 152.222656 128.203125 155.628906 129.171875 158.890625 130.519531 C 160.253906 131.113281 161.628906 131.738281 162.78125 132.695312 C 163.214844 133.074219 163.714844 133.578125 163.589844 134.210938 C 163.457031 134.78125 162.851562 135.035156 162.335938 135.148438 C 161.003906 135.421875 159.636719 135.339844 158.289062 135.257812 C 155.425781 135.03125 152.578125 134.582031 149.78125 133.929688 C 153.199219 134.082031 156.613281 134.414062 160.035156 134.355469 C 160.875 134.285156 161.757812 134.328125 162.542969 133.96875 C 162.066406 133.402344 161.433594 133 160.804688 132.625 C 159.679688 131.972656 158.5 131.433594 157.308594 130.914062 C 154.566406 129.730469 151.757812 128.710938 148.96875 127.644531 C 148.75 127.550781 148.519531 127.484375 148.285156 127.4375 Z M 148.285156 127.4375 " fill-opacity="1" fill-rule="nonzero"/><path fill="#000000" d="M 151.078125 135.167969 C 153.058594 139.632812 154.570312 144.285156 156.375 148.820312 C 156.90625 150.097656 157.421875 151.390625 158.1875 152.546875 C 158.285156 152.742188 158.535156 152.691406 158.710938 152.746094 C 161.296875 153.257812 163.855469 153.972656 166.28125 155.011719 C 167.296875 155.46875 168.320312 155.964844 169.160156 156.714844 C 169.476562 157.019531 169.816406 157.40625 169.769531 157.882812 C 169.746094 158.324219 169.351562 158.632812 168.964844 158.769531 C 168.171875 159.035156 167.320312 159.039062 166.492188 159.035156 C 164.542969 159 162.609375 158.703125 160.691406 158.371094 C 161.742188 159.671875 162.765625 160.996094 163.863281 162.257812 C 165.972656 164.738281 168.214844 167.109375 170.636719 169.289062 C 171.921875 170.417969 173.246094 171.5 174.652344 172.476562 C 176.058594 173.421875 177.53125 174.265625 179.046875 175.023438 C 182.070312 176.5625 185.222656 177.832031 188.40625 178.988281 C 190.75 179.84375 193.117188 180.621094 195.5 181.359375 C 195.914062 181.476562 196.316406 181.632812 196.742188 181.699219 C 196.328125 181.730469 195.925781 181.613281 195.519531 181.558594 C 191.890625 180.914062 188.320312 179.960938 184.835938 178.769531 C 181.847656 177.714844 178.90625 176.492188 176.148438 174.917969 C 173.347656 173.308594 170.839844 171.214844 168.59375 168.902344 C 165.515625 165.726562 162.832031 162.164062 160.613281 158.335938 C 160.125 158.246094 159.640625 158.117188 159.152344 158.023438 C 160.179688 157.980469 161.207031 158.066406 162.234375 158.074219 C 163.839844 158.101562 165.449219 158.148438 167.054688 158.058594 C 167.574219 158.003906 168.105469 157.964844 168.601562 157.796875 C 168.625 157.710938 168.601562 157.644531 168.53125 157.59375 C 167.863281 156.957031 167.027344 156.53125 166.214844 156.105469 C 163.800781 154.917969 161.273438 153.984375 158.78125 152.972656 C 158.554688 152.875 158.304688 152.835938 158.097656 152.695312 C 157.246094 151.933594 156.542969 151.015625 155.949219 150.039062 C 154.457031 147.5625 153.417969 144.84375 152.5625 142.09375 C 151.945312 140.074219 151.449219 138.015625 151.144531 135.929688 C 151.101562 135.675781 151.066406 135.425781 151.078125 135.167969 Z M 151.078125 135.167969 " fill-opacity="1" fill-rule="nonzero"/><path fill="#000000" d="M 205.015625 147.328125 C 205.390625 147.203125 205.742188 147.582031 205.753906 147.9375 C 205.964844 150.140625 206.046875 152.355469 206.082031 154.566406 C 206.097656 156.703125 206.101562 158.84375 205.976562 160.976562 C 205.863281 162.941406 205.6875 164.910156 205.289062 166.839844 C 205.066406 167.777344 204.851562 168.75 204.285156 169.546875 C 204.671875 168.664062 204.78125 167.691406 204.875 166.742188 C 205.058594 164.6875 205.023438 162.625 205.023438 160.566406 C 204.996094 159.144531 204.953125 157.71875 204.933594 156.296875 L 204.902344 156.242188 C 204.890625 155.160156 204.828125 154.078125 204.78125 152.996094 C 203.59375 155.84375 201.898438 158.449219 200.023438 160.882812 C 199.558594 161.472656 199.089844 162.054688 198.585938 162.605469 C 200.335938 159.726562 202.054688 156.808594 203.34375 153.683594 C 203.875 152.347656 204.363281 150.96875 204.492188 149.523438 C 204.539062 148.960938 204.476562 148.398438 204.5 147.839844 C 204.582031 147.605469 204.796875 147.425781 205.019531 147.328125 Z M 205.015625 147.328125 " fill-opacity="1" fill-rule="nonzero"/><path fill="#000000" d="M 208.09375 159.554688 C 208.214844 159.363281 208.390625 159.195312 208.609375 159.117188 C 208.914062 159.023438 209.195312 159.285156 209.292969 159.554688 C 209.355469 159.917969 209.382812 160.289062 209.394531 160.65625 L 209.425781 160.707031 C 209.660156 164.578125 209.765625 168.460938 209.566406 172.332031 C 209.472656 174.355469 209.296875 176.382812 208.914062 178.375 C 208.769531 179.070312 208.601562 179.765625 208.34375 180.429688 C 208.210938 180.75 208.070312 181.078125 207.835938 181.34375 C 208.164062 180.714844 208.253906 180 208.363281 179.308594 C 208.640625 176.96875 208.601562 174.613281 208.589844 172.261719 C 208.566406 170.472656 208.523438 168.679688 208.4375 166.890625 C 208.414062 166.183594 208.417969 165.46875 208.335938 164.765625 C 208.144531 165.382812 207.828125 165.953125 207.546875 166.535156 C 206.789062 168.042969 205.894531 169.476562 204.929688 170.863281 C 204.066406 172.082031 203.171875 173.285156 202.160156 174.386719 C 203.851562 171.621094 205.496094 168.8125 206.773438 165.824219 C 207.421875 164.222656 208.046875 162.558594 208.089844 160.808594 C 208.117188 160.394531 208 159.96875 208.09375 159.554688 Z M 208.09375 159.554688 " fill-opacity="1" fill-rule="nonzero"/><path fill="#000000" d="M 213.269531 173.507812 C 213.410156 173.003906 214.21875 172.957031 214.40625 173.453125 C 214.617188 174.09375 214.417969 174.777344 214.289062 175.417969 C 214.019531 178.992188 213.703125 182.585938 212.863281 186.082031 C 212.582031 187.113281 212.335938 188.203125 211.699219 189.082031 C 211.972656 188.238281 212.078125 187.351562 212.179688 186.476562 C 212.371094 184.449219 212.503906 182.417969 212.640625 180.386719 C 212.695312 179.667969 212.753906 178.953125 212.785156 178.234375 C 211.851562 179.566406 210.753906 180.789062 209.535156 181.867188 C 210.792969 179.921875 212.140625 177.996094 212.964844 175.816406 C 213.105469 175.054688 213.070312 174.261719 213.269531 173.507812 Z M 213.269531 173.507812 " fill-opacity="1" fill-rule="nonzero"/><path fill="#000000" d="M 186.410156 183.113281 C 186.40625 182.839844 186.464844 182.523438 186.707031 182.359375 C 186.949219 182.273438 187.207031 182.378906 187.40625 182.523438 C 188.625 183.417969 190.054688 183.945312 191.453125 184.480469 C 194.265625 185.515625 197.136719 186.378906 199.996094 187.28125 C 200.589844 187.445312 201.164062 187.683594 201.769531 187.804688 C 200.941406 187.792969 200.128906 187.582031 199.3125 187.457031 C 196.449219 186.914062 193.605469 186.242188 190.835938 185.320312 C 193.242188 187.164062 195.636719 189.027344 198.125 190.757812 C 198.5625 191.070312 199.03125 191.339844 199.460938 191.664062 C 197.855469 190.988281 196.339844 190.121094 194.859375 189.203125 C 192.386719 187.667969 190.003906 185.988281 187.699219 184.203125 C 187.265625 183.847656 186.804688 183.519531 186.410156 183.113281 Z M 186.410156 183.113281 " fill-opacity="1" fill-rule="nonzero"/><path fill="#000000" d="M 190.46875 188.902344 C 190.785156 188.757812 191.101562 188.976562 191.347656 189.160156 C 192.605469 190.042969 194.066406 190.5625 195.492188 191.101562 C 198.269531 192.113281 201.105469 192.960938 203.921875 193.851562 C 204.476562 194.007812 205.011719 194.226562 205.578125 194.335938 C 205.148438 194.359375 204.730469 194.25 204.304688 194.195312 C 201.511719 193.722656 198.738281 193.101562 196.019531 192.292969 C 195.550781 192.175781 195.105469 191.953125 194.625 191.882812 C 194.675781 191.910156 194.777344 191.964844 194.828125 191.992188 C 197.167969 193.816406 199.523438 195.625 201.960938 197.320312 C 202.394531 197.597656 202.800781 197.925781 203.273438 198.144531 C 202.648438 198 202.097656 197.644531 201.519531 197.378906 C 198.734375 195.914062 196.121094 194.140625 193.574219 192.300781 C 192.429688 191.445312 191.253906 190.621094 190.203125 189.648438 C 190.1875 189.378906 190.246094 189.078125 190.46875 188.902344 Z M 190.46875 188.902344 " fill-opacity="1" fill-rule="nonzero"/><g clip-path="url(#5d0860e236)"><path fill="#000000" d="M 218.136719 205.292969 C 219.972656 207.476562 221.707031 209.746094 223.398438 212.039062 C 225.253906 214.582031 227.054688 217.171875 228.714844 219.847656 C 230.007812 221.933594 231.242188 224.066406 232.285156 226.292969 C 233.066406 227.976562 233.769531 229.714844 234.117188 231.546875 C 234.242188 232.179688 234.1875 232.832031 234.199219 233.476562 C 234.222656 234.773438 233.394531 236.046875 232.191406 236.539062 C 231.0625 237.023438 229.847656 237.257812 228.648438 237.492188 C 226.121094 237.945312 223.566406 238.203125 221.007812 238.40625 C 217.539062 238.652344 214.066406 238.839844 210.589844 238.828125 C 207.269531 238.808594 203.949219 238.886719 200.632812 238.679688 C 198.695312 238.597656 196.761719 238.4375 194.832031 238.214844 C 193.066406 237.988281 191.292969 237.738281 189.582031 237.214844 C 188.792969 236.949219 187.953125 236.65625 187.386719 236.015625 C 186.941406 235.523438 186.949219 234.8125 186.929688 234.191406 C 186.941406 232.476562 187.476562 230.820312 188.058594 229.222656 C 189.21875 226.148438 190.777344 223.242188 192.410156 220.398438 C 193.925781 217.769531 195.554688 215.207031 197.242188 212.683594 C 198.636719 210.605469 200.074219 208.550781 201.578125 206.546875 C 198.222656 211.816406 194.964844 217.160156 192.125 222.726562 C 191.3125 224.34375 190.539062 225.976562 189.851562 227.652344 C 189.265625 229.085938 188.730469 230.550781 188.398438 232.070312 C 188.199219 233.015625 188.050781 234.003906 188.242188 234.96875 C 188.289062 235.234375 188.554688 235.371094 188.761719 235.5 C 189.472656 235.871094 190.257812 236.066406 191.03125 236.246094 C 193.15625 236.703125 195.324219 236.902344 197.484375 237.066406 C 200.847656 237.296875 204.222656 237.410156 207.59375 237.394531 C 211.253906 237.40625 214.914062 237.296875 218.570312 237.117188 C 221.300781 236.949219 224.03125 236.742188 226.746094 236.398438 C 228.207031 236.191406 229.675781 235.980469 231.089844 235.546875 C 231.519531 235.398438 231.984375 235.261719 232.304688 234.917969 C 232.683594 234.566406 232.894531 234.066406 232.953125 233.5625 C 233.121094 232.257812 232.789062 230.957031 232.421875 229.71875 C 231.671875 227.351562 230.570312 225.113281 229.421875 222.921875 C 227.945312 220.140625 226.296875 217.453125 224.605469 214.796875 C 222.535156 211.570312 220.367188 208.410156 218.136719 205.292969 Z M 218.136719 205.292969 " fill-opacity="1" fill-rule="nonzero"/></g><path fill="#000000" d="M 211.566406 220.238281 C 212.714844 220.246094 213.871094 220.085938 215.015625 220.277344 C 216.5625 220.527344 218.101562 220.882812 219.582031 221.402344 C 220.289062 221.671875 221.023438 221.945312 221.585938 222.464844 C 221.863281 222.714844 221.875 223.101562 221.859375 223.449219 C 221.855469 225.238281 221.859375 227.027344 221.855469 228.820312 C 221.859375 229.296875 221.761719 229.785156 221.523438 230.203125 C 221.070312 231.035156 220.144531 231.578125 219.199219 231.554688 C 212.648438 231.550781 206.097656 231.554688 199.546875 231.550781 C 198.234375 231.539062 197.054688 230.375 197.035156 229.058594 C 197.035156 227.054688 197.035156 225.050781 197.035156 223.046875 C 197.011719 222.671875 197.335938 222.417969 197.617188 222.234375 C 198.320312 221.804688 199.117188 221.5625 199.902344 221.335938 C 201.515625 220.898438 203.160156 220.585938 204.820312 220.414062 C 207.066406 220.335938 209.316406 220.289062 211.566406 220.238281 Z M 211.566406 220.238281 " fill-opacity="1" fill-rule="nonzero"/></svg>