<svg xmlns="http://www.w3.org/2000/svg" xmlns:xlink="http://www.w3.org/1999/xlink" width="500" zoomAndPan="magnify" viewBox="0 0 375 374.999991" height="500" preserveAspectRatio="xMidYMid meet" version="1.0"><defs><clipPath id="69e73fc683"><path d="M 118 107.40625 L 162 107.40625 L 162 162 L 118 162 Z M 118 107.40625 " clip-rule="nonzero"/></clipPath><clipPath id="1cd70b0d6a"><path d="M 198 269 L 264.238281 269 L 264.238281 315.90625 L 198 315.90625 Z M 198 269 " clip-rule="nonzero"/></clipPath></defs><rect x="-37.5" width="450" fill="#ffffff" y="-37.499999" height="449.999989" fill-opacity="1"/><rect x="-37.5" width="450" fill="#ffffff" y="-37.499999" height="449.999989" fill-opacity="1"/><g clip-path="url(#69e73fc683)"><path fill="#000000" d="M 118.726562 107.777344 C 119.289062 107.53125 119.914062 107.480469 120.519531 107.441406 C 121.328125 107.425781 122.136719 107.40625 122.945312 107.46875 C 124.644531 107.683594 126.296875 108.152344 127.9375 108.636719 C 132.539062 110.050781 136.980469 111.925781 141.378906 113.855469 C 146.800781 116.28125 152.140625 118.890625 157.390625 121.660156 C 158.699219 122.359375 160.019531 123.03125 161.28125 123.796875 C 156.808594 121.769531 152.304688 119.804688 147.789062 117.875 C 144.0625 116.289062 140.320312 114.742188 136.539062 113.296875 C 132.808594 111.894531 129.058594 110.511719 125.175781 109.589844 C 123.726562 109.277344 122.25 108.992188 120.761719 109.105469 C 123.113281 110.390625 125.511719 111.640625 127.601562 113.335938 C 130.460938 115.589844 132.867188 118.578125 133.863281 122.121094 C 137.089844 134.023438 140.21875 145.949219 143.117188 157.933594 C 143.40625 159.152344 143.710938 160.367188 143.960938 161.59375 C 140.324219 150.269531 136.925781 138.867188 133.632812 127.4375 C 133.140625 125.757812 132.671875 124.074219 132.167969 122.394531 C 131.257812 119.453125 129.253906 116.957031 126.886719 115.035156 C 125.101562 113.574219 123.117188 112.378906 121.089844 111.285156 C 120.3125 110.859375 119.511719 110.46875 118.78125 109.964844 C 118.394531 109.695312 118.015625 109.300781 118.019531 108.792969 C 118.011719 108.34375 118.332031 107.953125 118.726562 107.777344 Z M 118.726562 107.777344 " fill-opacity="1" fill-rule="nonzero"/></g><path fill="#000000" d="M 147.539062 120.425781 C 147.429688 120.347656 147.421875 120.246094 147.511719 120.125 C 154.96875 125.027344 162.214844 130.242188 169.230469 135.757812 C 172.347656 138.226562 175.394531 140.78125 178.359375 143.433594 C 181.417969 146.1875 184.382812 149.058594 187.078125 152.171875 C 188.371094 153.683594 189.601562 155.25 190.675781 156.921875 C 191.628906 158.457031 192.542969 160.011719 193.5625 161.503906 C 196.683594 166.128906 200.285156 170.402344 203.542969 174.925781 C 206.023438 178.359375 208.296875 181.960938 210.164062 185.765625 C 213.53125 192.597656 215.421875 200.164062 215.539062 207.78125 C 215.488281 207.785156 215.382812 207.789062 215.328125 207.792969 C 214.613281 202.914062 213.457031 198.085938 211.664062 193.488281 C 210.035156 189.269531 207.894531 185.257812 205.425781 181.472656 C 200.941406 174.542969 195.558594 168.226562 191.25 161.179688 C 190.472656 159.933594 189.785156 158.628906 189.011719 157.382812 C 186.707031 153.8125 183.828125 150.65625 180.863281 147.628906 C 177.773438 144.527344 174.527344 141.585938 171.199219 138.738281 C 163.621094 132.25 155.679688 126.1875 147.539062 120.425781 Z M 147.539062 120.425781 " fill-opacity="1" fill-rule="nonzero"/><path fill="#000000" d="M 168.660156 154.542969 C 168.976562 154.300781 169.308594 154.082031 169.632812 153.851562 C 177.519531 165.257812 185.242188 176.777344 192.746094 188.4375 C 197.300781 195.539062 201.777344 202.6875 206.023438 209.976562 C 208.148438 213.644531 210.21875 217.34375 212.113281 221.132812 C 214.195312 225.359375 216.074219 229.679688 217.882812 234.027344 C 221.296875 242.253906 224.414062 250.597656 227.558594 258.929688 C 227.71875 259.328125 227.605469 259.808594 227.886719 260.164062 C 228.285156 260.597656 228.390625 261.199219 228.621094 261.726562 C 229.324219 263.585938 230.039062 265.441406 230.765625 267.292969 C 232.238281 267.253906 233.71875 267.21875 235.183594 267.054688 C 234.1875 264.890625 233.25 262.691406 232.246094 260.527344 C 232.0625 260.191406 232.125 259.78125 231.941406 259.445312 C 231.824219 259.195312 231.578125 259.042969 231.457031 258.796875 C 228.441406 252.222656 225.347656 245.679688 222.222656 239.152344 C 221.476562 237.601562 220.757812 236.039062 219.914062 234.539062 C 211.707031 219.265625 203.492188 203.996094 195.292969 188.71875 C 195.640625 188.542969 195.980469 188.347656 196.332031 188.175781 C 204.824219 203.953125 213.304688 219.742188 221.785156 235.523438 C 224.710938 241.558594 227.574219 247.617188 230.40625 253.695312 C 231.308594 255.605469 232.160156 257.539062 233.074219 259.441406 C 235.949219 259.5625 238.820312 259.871094 241.652344 260.390625 C 243.492188 260.757812 245.339844 261.183594 247.046875 261.984375 C 247.734375 262.324219 248.414062 262.742188 248.804688 263.429688 C 248.167969 262.523438 247.125 262.074219 246.121094 261.710938 C 244.164062 261.023438 242.113281 260.679688 240.0625 260.394531 C 237.804688 260.121094 235.53125 259.933594 233.253906 259.898438 C 234.339844 262.242188 235.386719 264.601562 236.410156 266.96875 C 239.117188 266.703125 241.824219 266.316406 244.441406 265.566406 C 245.351562 265.28125 246.269531 264.980469 247.09375 264.488281 C 247.390625 264.289062 247.742188 264.089844 247.84375 263.726562 C 248.15625 263.753906 248.46875 263.789062 248.78125 263.839844 C 248.78125 263.648438 248.78125 263.464844 248.796875 263.28125 C 248.804688 263.464844 248.808594 263.648438 248.8125 263.839844 C 249.167969 263.867188 249.527344 263.894531 249.886719 263.953125 C 249.832031 264.625 249.457031 265.230469 248.945312 265.660156 C 248.105469 266.371094 247.058594 266.773438 246.027344 267.121094 C 243.148438 268.023438 240.132812 268.394531 237.140625 268.640625 C 237.941406 270.636719 238.84375 272.605469 239.40625 274.683594 C 239.632812 275.988281 239.800781 277.308594 239.84375 278.632812 C 239.808594 279.359375 239.773438 280.195312 239.199219 280.726562 C 238.671875 281.230469 237.855469 281.15625 237.21875 280.921875 C 236.472656 280.628906 235.695312 280.28125 235.203125 279.621094 C 234.515625 278.742188 234.003906 277.738281 233.5 276.746094 C 232.253906 274.183594 231.167969 271.546875 230.136719 268.890625 C 225.1875 268.757812 220.1875 268.445312 215.386719 267.164062 C 214.210938 266.832031 213.042969 266.441406 211.992188 265.820312 C 211.402344 265.449219 210.792969 264.976562 210.589844 264.28125 C 210.394531 263.636719 210.707031 262.953125 211.183594 262.523438 C 211.980469 261.792969 213.011719 261.40625 214.019531 261.066406 C 216.609375 260.242188 219.320312 259.886719 222.015625 259.617188 C 223.496094 259.511719 224.976562 259.386719 226.460938 259.367188 C 223.050781 250.363281 219.691406 241.335938 215.945312 232.464844 C 214.28125 228.546875 212.5625 224.652344 210.648438 220.847656 C 208.617188 216.867188 206.410156 212.976562 204.148438 209.121094 C 199.402344 201.058594 194.394531 193.152344 189.304688 185.296875 C 182.570312 174.945312 175.699219 164.6875 168.660156 154.542969 M 220.039062 260.625 C 217.953125 260.964844 215.863281 261.363281 213.882812 262.121094 C 213.113281 262.4375 212.296875 262.773438 211.746094 263.425781 C 211.542969 263.648438 211.53125 264 211.742188 264.226562 C 212.136719 264.695312 212.707031 264.976562 213.257812 265.222656 C 214.511719 265.761719 215.851562 266.074219 217.1875 266.351562 C 219.664062 266.816406 222.179688 267.101562 224.699219 267.191406 L 224.773438 267.234375 C 226.347656 267.269531 227.921875 267.351562 229.5 267.304688 C 228.542969 264.875 227.621094 262.429688 226.691406 259.988281 C 224.464844 260.070312 222.242188 260.304688 220.039062 260.625 M 231.394531 268.882812 C 232.597656 271.84375 233.769531 274.835938 235.3125 277.644531 C 235.757812 278.351562 236.15625 279.191406 236.976562 279.527344 C 237.417969 279.710938 237.925781 280.054688 238.414062 279.847656 C 238.742188 279.28125 238.65625 278.589844 238.640625 277.960938 C 238.558594 277.167969 238.480469 276.371094 238.359375 275.582031 C 238.285156 274.816406 238 274.09375 237.753906 273.375 C 237.234375 271.945312 236.644531 270.539062 236.058594 269.140625 C 235.984375 268.996094 235.957031 268.816406 235.824219 268.722656 C 234.351562 268.84375 232.871094 268.851562 231.394531 268.882812 Z M 231.394531 268.882812 " fill-opacity="1" fill-rule="nonzero"/><path fill="#000000" d="M 144.484375 160.992188 C 144.710938 160.992188 144.941406 160.988281 145.164062 161.035156 C 149.964844 162.054688 154.710938 163.402344 159.253906 165.277344 C 161.148438 166.101562 163.066406 166.972656 164.671875 168.296875 C 165.273438 168.828125 165.972656 169.53125 165.796875 170.410156 C 165.609375 171.203125 164.769531 171.554688 164.050781 171.714844 C 162.199219 172.089844 160.289062 171.972656 158.417969 171.863281 C 154.425781 171.550781 150.460938 170.921875 146.566406 170.019531 C 151.324219 170.226562 156.082031 170.6875 160.847656 170.609375 C 162.015625 170.511719 163.25 170.574219 164.335938 170.070312 C 163.675781 169.28125 162.792969 168.726562 161.921875 168.199219 C 160.355469 167.296875 158.707031 166.546875 157.046875 165.824219 C 153.230469 164.183594 149.316406 162.765625 145.433594 161.285156 C 145.128906 161.152344 144.808594 161.054688 144.484375 160.992188 Z M 144.484375 160.992188 " fill-opacity="1" fill-rule="nonzero"/><path fill="#000000" d="M 148.375 171.742188 C 151.128906 177.945312 153.234375 184.414062 155.75 190.714844 C 156.488281 192.488281 157.210938 194.289062 158.277344 195.894531 C 158.410156 196.167969 158.757812 196.097656 159.003906 196.171875 C 162.605469 196.882812 166.167969 197.875 169.546875 199.320312 C 170.960938 199.957031 172.390625 200.644531 173.554688 201.6875 C 173.996094 202.113281 174.472656 202.648438 174.402344 203.308594 C 174.375 203.925781 173.824219 204.355469 173.285156 204.542969 C 172.179688 204.914062 170.996094 204.917969 169.839844 204.914062 C 167.125 204.867188 164.433594 204.449219 161.761719 203.988281 C 163.222656 205.800781 164.648438 207.640625 166.179688 209.394531 C 169.117188 212.84375 172.242188 216.136719 175.613281 219.167969 C 177.402344 220.738281 179.25 222.238281 181.207031 223.597656 C 183.164062 224.914062 185.214844 226.082031 187.328125 227.136719 C 191.539062 229.273438 195.925781 231.039062 200.363281 232.648438 C 203.628906 233.835938 206.925781 234.921875 210.246094 235.945312 C 210.820312 236.109375 211.378906 236.324219 211.972656 236.414062 C 211.394531 236.457031 210.835938 236.296875 210.269531 236.21875 C 205.21875 235.324219 200.246094 234 195.390625 232.347656 C 191.226562 230.878906 187.132812 229.175781 183.292969 226.988281 C 179.386719 224.753906 175.898438 221.847656 172.765625 218.628906 C 168.480469 214.210938 164.742188 209.261719 161.652344 203.941406 C 160.96875 203.816406 160.296875 203.640625 159.617188 203.503906 C 161.046875 203.449219 162.476562 203.566406 163.910156 203.574219 C 166.148438 203.613281 168.386719 203.683594 170.621094 203.554688 C 171.347656 203.476562 172.085938 203.425781 172.78125 203.191406 C 172.8125 203.070312 172.777344 202.980469 172.679688 202.910156 C 171.746094 202.023438 170.585938 201.433594 169.453125 200.84375 C 166.089844 199.191406 162.574219 197.890625 159.101562 196.488281 C 158.789062 196.351562 158.4375 196.300781 158.148438 196.105469 C 156.960938 195.042969 155.980469 193.765625 155.15625 192.40625 C 153.078125 188.96875 151.628906 185.191406 150.4375 181.363281 C 149.582031 178.558594 148.890625 175.699219 148.464844 172.792969 C 148.40625 172.445312 148.355469 172.09375 148.375 171.742188 Z M 148.375 171.742188 " fill-opacity="1" fill-rule="nonzero"/><path fill="#000000" d="M 223.5 188.640625 C 224.019531 188.46875 224.507812 188.992188 224.523438 189.488281 C 224.816406 192.550781 224.933594 195.628906 224.980469 198.703125 C 225.003906 201.671875 225.007812 204.648438 224.832031 207.613281 C 224.679688 210.34375 224.433594 213.082031 223.878906 215.765625 C 223.570312 217.0625 223.269531 218.417969 222.480469 219.523438 C 223.019531 218.296875 223.167969 216.949219 223.300781 215.625 C 223.554688 212.773438 223.507812 209.90625 223.507812 207.042969 C 223.472656 205.0625 223.410156 203.085938 223.382812 201.105469 L 223.339844 201.03125 C 223.324219 199.527344 223.234375 198.023438 223.167969 196.519531 C 221.515625 200.476562 219.15625 204.097656 216.539062 207.480469 C 215.898438 208.300781 215.242188 209.109375 214.539062 209.878906 C 216.976562 205.875 219.375 201.816406 221.167969 197.476562 C 221.90625 195.617188 222.585938 193.699219 222.765625 191.691406 C 222.832031 190.910156 222.746094 190.128906 222.78125 189.351562 C 222.894531 189.027344 223.191406 188.777344 223.5 188.640625 Z M 223.5 188.640625 " fill-opacity="1" fill-rule="nonzero"/><path fill="#000000" d="M 227.785156 205.636719 C 227.953125 205.371094 228.199219 205.136719 228.5 205.027344 C 228.925781 204.894531 229.320312 205.261719 229.453125 205.636719 C 229.542969 206.140625 229.578125 206.65625 229.597656 207.167969 L 229.636719 207.238281 C 229.964844 212.617188 230.113281 218.011719 229.832031 223.394531 C 229.703125 226.210938 229.460938 229.027344 228.925781 231.796875 C 228.726562 232.765625 228.492188 233.726562 228.132812 234.652344 C 227.949219 235.101562 227.75 235.554688 227.425781 235.921875 C 227.882812 235.050781 228.007812 234.050781 228.15625 233.089844 C 228.542969 229.84375 228.492188 226.566406 228.472656 223.296875 C 228.445312 220.808594 228.382812 218.320312 228.261719 215.835938 C 228.226562 214.847656 228.234375 213.859375 228.121094 212.878906 C 227.855469 213.738281 227.414062 214.53125 227.023438 215.339844 C 225.96875 217.4375 224.71875 219.429688 223.378906 221.355469 C 222.175781 223.050781 220.929688 224.722656 219.519531 226.253906 C 221.875 222.40625 224.167969 218.5 225.941406 214.351562 C 226.851562 212.125 227.71875 209.8125 227.777344 207.382812 C 227.8125 206.800781 227.652344 206.207031 227.785156 205.636719 Z M 227.785156 205.636719 " fill-opacity="1" fill-rule="nonzero"/><path fill="#000000" d="M 234.992188 225.035156 C 235.1875 224.332031 236.316406 224.261719 236.574219 224.957031 C 236.867188 225.84375 236.59375 226.796875 236.414062 227.683594 C 236.039062 232.65625 235.59375 237.652344 234.429688 242.511719 C 234.035156 243.945312 233.695312 245.453125 232.804688 246.679688 C 233.183594 245.503906 233.335938 244.277344 233.472656 243.054688 C 233.738281 240.238281 233.925781 237.414062 234.117188 234.589844 C 234.191406 233.59375 234.273438 232.597656 234.316406 231.601562 C 233.019531 233.453125 231.492188 235.148438 229.792969 236.648438 C 231.546875 233.945312 233.417969 231.269531 234.570312 228.242188 C 234.765625 227.183594 234.714844 226.082031 234.992188 225.035156 Z M 234.992188 225.035156 " fill-opacity="1" fill-rule="nonzero"/><path fill="#000000" d="M 197.585938 238.382812 C 197.574219 238 197.65625 237.5625 197.996094 237.332031 C 198.335938 237.214844 198.695312 237.359375 198.96875 237.5625 C 200.664062 238.804688 202.65625 239.539062 204.605469 240.28125 C 208.523438 241.71875 212.523438 242.921875 216.503906 244.171875 C 217.332031 244.40625 218.132812 244.734375 218.976562 244.902344 C 217.820312 244.886719 216.691406 244.59375 215.554688 244.417969 C 211.566406 243.667969 207.601562 242.730469 203.746094 241.449219 C 207.097656 244.011719 210.433594 246.601562 213.898438 249.007812 C 214.511719 249.441406 215.160156 249.816406 215.761719 250.269531 C 213.527344 249.324219 211.414062 248.121094 209.351562 246.847656 C 205.90625 244.710938 202.585938 242.378906 199.378906 239.898438 C 198.773438 239.402344 198.132812 238.949219 197.585938 238.382812 Z M 197.585938 238.382812 " fill-opacity="1" fill-rule="nonzero"/><path fill="#000000" d="M 203.234375 246.429688 C 203.675781 246.226562 204.117188 246.53125 204.460938 246.789062 C 206.210938 248.011719 208.246094 248.734375 210.234375 249.484375 C 214.101562 250.890625 218.050781 252.070312 221.976562 253.308594 C 222.746094 253.527344 223.492188 253.832031 224.28125 253.980469 C 223.679688 254.015625 223.097656 253.863281 222.507812 253.785156 C 218.613281 253.132812 214.753906 252.265625 210.96875 251.140625 C 210.3125 250.980469 209.691406 250.671875 209.023438 250.570312 C 209.09375 250.609375 209.234375 250.683594 209.304688 250.722656 C 212.566406 253.261719 215.851562 255.773438 219.242188 258.128906 C 219.847656 258.515625 220.414062 258.972656 221.070312 259.273438 C 220.199219 259.078125 219.429688 258.582031 218.628906 258.210938 C 214.746094 256.175781 211.109375 253.710938 207.558594 251.15625 C 205.964844 249.964844 204.328125 248.816406 202.863281 247.464844 C 202.84375 247.089844 202.925781 246.675781 203.234375 246.429688 Z M 203.234375 246.429688 " fill-opacity="1" fill-rule="nonzero"/><g clip-path="url(#1cd70b0d6a)"><path fill="#000000" d="M 241.773438 269.210938 C 244.328125 272.25 246.742188 275.398438 249.101562 278.589844 C 251.6875 282.125 254.191406 285.722656 256.503906 289.441406 C 258.308594 292.34375 260.027344 295.304688 261.476562 298.402344 C 262.5625 300.742188 263.546875 303.15625 264.03125 305.703125 C 264.203125 306.585938 264.128906 307.488281 264.144531 308.386719 C 264.179688 310.191406 263.023438 311.957031 261.347656 312.644531 C 259.773438 313.316406 258.082031 313.644531 256.410156 313.96875 C 252.890625 314.597656 249.332031 314.957031 245.769531 315.238281 C 240.941406 315.582031 236.101562 315.839844 231.261719 315.824219 C 226.636719 315.800781 222.007812 315.90625 217.394531 315.621094 C 214.691406 315.507812 212 315.28125 209.3125 314.972656 C 206.851562 314.660156 204.378906 314.308594 202.003906 313.582031 C 200.902344 313.214844 199.734375 312.808594 198.941406 311.917969 C 198.324219 311.230469 198.335938 310.246094 198.304688 309.382812 C 198.324219 306.996094 199.070312 304.695312 199.878906 302.476562 C 201.496094 298.203125 203.667969 294.164062 205.9375 290.207031 C 208.050781 286.554688 210.320312 282.992188 212.667969 279.484375 C 214.613281 276.59375 216.613281 273.738281 218.707031 270.957031 C 214.035156 278.277344 209.496094 285.707031 205.539062 293.445312 C 204.410156 295.691406 203.335938 297.964844 202.375 300.289062 C 201.5625 302.285156 200.8125 304.320312 200.347656 306.429688 C 200.074219 307.75 199.867188 309.121094 200.136719 310.460938 C 200.199219 310.832031 200.566406 311.023438 200.859375 311.199219 C 201.847656 311.71875 202.941406 311.988281 204.019531 312.238281 C 206.976562 312.871094 209.996094 313.148438 213.007812 313.375 C 217.695312 313.699219 222.390625 313.855469 227.089844 313.832031 C 232.1875 313.851562 237.28125 313.699219 242.375 313.449219 C 246.175781 313.214844 249.980469 312.925781 253.761719 312.445312 C 255.796875 312.160156 257.84375 311.867188 259.816406 311.265625 C 260.414062 311.058594 261.0625 310.867188 261.507812 310.386719 C 262.035156 309.902344 262.324219 309.207031 262.410156 308.503906 C 262.644531 306.695312 262.179688 304.886719 261.667969 303.164062 C 260.625 299.871094 259.089844 296.765625 257.488281 293.714844 C 255.433594 289.847656 253.136719 286.113281 250.78125 282.421875 C 247.894531 277.9375 244.875 273.542969 241.773438 269.210938 Z M 241.773438 269.210938 " fill-opacity="1" fill-rule="nonzero"/></g><path fill="#000000" d="M 232.617188 289.984375 C 234.21875 289.996094 235.832031 289.773438 237.421875 290.042969 C 239.582031 290.386719 241.722656 290.882812 243.785156 291.605469 C 244.769531 291.976562 245.792969 292.355469 246.578125 293.082031 C 246.964844 293.425781 246.980469 293.964844 246.957031 294.449219 C 246.953125 296.9375 246.957031 299.425781 246.953125 301.914062 C 246.957031 302.578125 246.820312 303.257812 246.488281 303.839844 C 245.859375 304.992188 244.566406 305.75 243.25 305.714844 C 234.125 305.710938 225 305.71875 215.878906 305.710938 C 214.050781 305.691406 212.40625 304.078125 212.382812 302.246094 C 212.378906 299.460938 212.378906 296.671875 212.382812 293.886719 C 212.347656 293.367188 212.800781 293.015625 213.191406 292.761719 C 214.171875 292.164062 215.28125 291.828125 216.375 291.507812 C 218.621094 290.902344 220.914062 290.46875 223.226562 290.230469 C 226.355469 290.121094 229.488281 290.058594 232.621094 289.984375 Z M 232.617188 289.984375 " fill-opacity="1" fill-rule="nonzero"/></svg>